<svg width="94" height="20" viewBox="0 0 94 20" fill="none" xmlns="http://www.w3.org/2000/svg">
<path d="M16.1803 2.14167C16.0514 2.24305 15.9253 2.3475 15.8019 2.45472C13.6947 4.28833 12.3608 6.9875 12.3608 10C12.3608 13.0122 13.6947 15.7114 15.8019 17.545C15.9253 17.6522 16.0514 17.7564 16.1803 17.8581C16.3092 17.7564 16.4353 17.6522 16.5586 17.545C18.6658 15.7114 19.9997 13.0122 19.9997 10C19.9997 6.9875 18.6658 4.28833 16.5586 2.45472C16.4353 2.3475 16.3092 2.24305 16.1803 2.14167ZM22.3606 -9.53674e-07C20.3131 -9.53674e-07 18.4097 0.615554 16.8247 1.67111C16.9056 1.7375 16.9878 1.80305 17.0664 1.87139C19.4222 3.92083 20.7733 6.88361 20.7733 10C20.7733 13.1158 19.4222 16.0786 17.0664 18.1283C16.9883 18.1961 16.9058 18.2619 16.8247 18.3286C18.4097 19.3842 20.3131 19.9997 22.3606 19.9997C27.8833 19.9997 32.3606 15.5225 32.3606 10C32.3606 4.47694 27.8833 -9.53674e-07 22.3606 -9.53674e-07ZM15.2942 18.1283C15.3722 18.1961 15.4547 18.2619 15.5358 18.3286C13.9508 19.3844 12.0472 20 10 20C4.47694 20 0 15.5225 0 10C0 4.47722 4.47694 -9.53674e-07 10 -9.53674e-07C12.0472 -9.53674e-07 13.9506 0.615554 15.5358 1.67111C15.4547 1.7375 15.3728 1.80305 15.2942 1.87111C12.9383 3.92083 11.5872 6.88361 11.5872 10C11.5872 13.1161 12.9383 16.0789 15.2942 18.1283ZM32.0472 16.1964V15.8083H31.9458L31.8292 16.0753L31.7128 15.8083H31.6114V16.1964H31.6831V15.9036L31.7922 16.1561H31.8664L31.9756 15.9031V16.1964H32.0472ZM31.4056 16.1964V15.8744H31.5353V15.8092H31.2044V15.8744H31.3344V16.1964H31.4056ZM83.6386 6.55222C82.8039 6.55222 82.2614 6.94194 81.8856 7.52639V6.71917H80.4525V13.3697H81.8995V9.64111C81.8995 8.54194 82.3725 7.92972 83.3186 7.92972C83.6108 7.92972 83.9169 7.97139 84.2231 8.09667L84.6683 6.73333C84.3481 6.60805 83.9306 6.55222 83.6386 6.55222ZM78.6308 6.71917H76.2658L76.2656 4.70194H74.8047L74.805 6.71917H73.4553V8.04111H74.805V11.0742C74.805 12.6183 75.4031 13.5367 77.1144 13.5367C77.7406 13.5367 78.4642 13.3419 78.9231 13.0219L78.5058 11.7836C78.0744 12.0342 77.6014 12.1594 77.2258 12.1594C76.5022 12.1594 76.2658 11.7139 76.2658 11.0464V8.04111H78.6308V6.71917ZM72.3044 7.24805C71.6086 6.78889 70.6489 6.55222 69.5914 6.55222C67.9081 6.55222 66.8225 7.35944 66.8225 8.68111C66.8225 9.76639 67.6297 10.4342 69.1183 10.6428L69.8 10.7403C70.5931 10.8514 70.9686 11.0603 70.9686 11.4358C70.9686 11.9506 70.44 12.2428 69.4522 12.2428C68.4506 12.2428 67.7269 11.9225 67.24 11.5472L66.5583 12.6742C67.3514 13.2583 68.3531 13.5367 69.4383 13.5367C71.3583 13.5367 72.4711 12.6322 72.4711 11.3661C72.4711 10.1975 71.5947 9.58528 70.1478 9.37667L69.4661 9.27917C68.84 9.19583 68.3392 9.07055 68.3392 8.62555C68.3392 8.13833 68.8122 7.84639 69.6053 7.84639C70.4539 7.84639 71.275 8.16639 71.6783 8.41667L72.3044 7.24805ZM60.6317 9.46028C60.7847 8.50028 61.3692 7.84639 62.3986 7.84639C63.3308 7.84639 63.9292 8.43055 64.0819 9.46028H60.6317ZM65.5844 10.0444C65.5708 7.97139 64.2908 6.55222 62.4264 6.55222C60.4786 6.55222 59.115 7.97139 59.115 10.0444C59.115 12.1594 60.5344 13.5367 62.5239 13.5367C63.5256 13.5367 64.4439 13.2864 65.2508 12.6047L64.5414 11.5331C63.9847 11.9786 63.2753 12.2289 62.6075 12.2289C61.675 12.2289 60.8267 11.7975 60.6178 10.6011H65.5569C65.5708 10.42 65.5844 10.2394 65.5844 10.0444ZM88.6728 7.91278C88.3761 7.91278 88.1006 7.96472 87.8461 8.06889C87.5914 8.17305 87.3714 8.31889 87.1864 8.50639C87.0011 8.69389 86.8556 8.91861 86.7489 9.18C86.6422 9.44167 86.5895 9.72972 86.5895 10.0447C86.5895 10.3592 86.6422 10.6478 86.7489 10.9092C86.8556 11.1706 87.0011 11.3953 87.1864 11.5828C87.3714 11.7703 87.5914 11.9161 87.8461 12.0203C88.1006 12.1244 88.3761 12.1764 88.6728 12.1764C88.9686 12.1764 89.2442 12.1244 89.4986 12.0203C89.7533 11.9161 89.9745 11.7703 90.162 11.5828C90.3495 11.3953 90.4964 11.1706 90.6031 10.9092C90.7097 10.6478 90.7628 10.3592 90.7628 10.0447C90.7628 9.72972 90.7097 9.44167 90.6031 9.18C90.4964 8.91861 90.3495 8.69389 90.162 8.50639C89.9745 8.31889 89.7533 8.17305 89.4986 8.06889C89.2442 7.96472 88.9686 7.91278 88.6728 7.91278ZM88.6728 6.54472C89.1861 6.54472 89.6619 6.63389 90.0994 6.81194C90.5372 6.99028 90.9156 7.23555 91.2347 7.54805C91.5547 7.86055 91.8044 8.22972 91.9847 8.65583C92.1656 9.08167 92.2558 9.54472 92.2558 10.0447C92.2558 10.5444 92.1656 11.0075 91.9847 11.4333C91.8044 11.8594 91.5547 12.2286 91.2347 12.5411C90.9156 12.8536 90.5372 13.0989 90.0994 13.2769C89.6619 13.4553 89.1861 13.5444 88.6728 13.5444C88.1586 13.5444 87.6828 13.4553 87.2453 13.2769C86.8078 13.0989 86.4303 12.8536 86.1133 12.5411C85.7961 12.2286 85.5478 11.8594 85.3667 11.4333C85.1864 11.0075 85.0964 10.5444 85.0964 10.0447C85.0964 9.54472 85.1864 9.08167 85.3667 8.65583C85.5478 8.22972 85.7961 7.86055 86.1133 7.54805C86.4303 7.23555 86.8078 6.99028 87.2453 6.81194C87.6828 6.63389 88.1586 6.54472 88.6728 6.54472ZM52.327 10.0444C52.327 8.87583 53.0922 7.91583 54.3445 7.91583C55.5406 7.91583 56.3478 8.83417 56.3478 10.0444C56.3478 11.255 55.5406 12.1733 54.3445 12.1733C53.0922 12.1733 52.327 11.2133 52.327 10.0444ZM57.7114 10.0444V6.71917H56.2642V7.52639C55.805 6.92806 55.1094 6.55222 54.1633 6.55222C52.2989 6.55222 50.8383 8.01333 50.8383 10.0444C50.8383 12.0758 52.2989 13.5367 54.1633 13.5367C55.1094 13.5367 55.805 13.1608 56.2642 12.5628V13.3697H57.7114V10.0444ZM49.5581 13.3697V9.19583C49.5581 7.62361 48.5564 6.56639 46.9425 6.55222C46.0939 6.53861 45.2172 6.80278 44.6053 7.735C44.1461 6.9975 43.4225 6.55222 42.4069 6.55222C41.6972 6.55222 41.0017 6.76111 40.4592 7.54028V6.71917H39.0119V13.3697H40.4731V9.68278C40.4731 8.52806 41.1131 7.91583 42.1006 7.91583C43.0608 7.91583 43.5478 8.54194 43.5478 9.66889V13.3697H45.0086V9.68278C45.0086 8.52806 45.6764 7.91583 46.6367 7.91583C47.6242 7.91583 48.0972 8.54194 48.0972 9.66889V13.3697H49.5581ZM93.3194 13.0525V13.1569H93.4158C93.4378 13.1569 93.4553 13.1525 93.4686 13.1439C93.4817 13.1356 93.4883 13.1222 93.4883 13.1042C93.4883 13.0869 93.4817 13.0739 93.4686 13.0653C93.4553 13.0567 93.4378 13.0525 93.4158 13.0525H93.3194ZM93.4169 12.9789C93.4669 12.9789 93.5061 12.99 93.5333 13.0125C93.5603 13.035 93.5742 13.0656 93.5742 13.1042C93.5742 13.1367 93.5633 13.1633 93.5417 13.1842C93.5197 13.2056 93.4889 13.2181 93.4489 13.2231L93.5772 13.3708H93.4769L93.3581 13.2242H93.3194V13.3708H93.2358V12.9789H93.4169ZM93.3919 13.5056C93.4375 13.5056 93.48 13.4967 93.5194 13.4797C93.5586 13.4622 93.5931 13.4389 93.6228 13.4092C93.6522 13.3797 93.6756 13.345 93.6925 13.3047C93.7094 13.2647 93.7181 13.2219 93.7181 13.1764C93.7181 13.1311 93.7094 13.0883 93.6925 13.0483C93.6756 13.0083 93.6522 12.9736 93.6228 12.9436C93.5931 12.9142 93.5586 12.8908 93.5194 12.8739C93.48 12.8572 93.4375 12.8486 93.3919 12.8486C93.3458 12.8486 93.3028 12.8572 93.2622 12.8739C93.2219 12.8908 93.1869 12.9142 93.1572 12.9436C93.1278 12.9736 93.1044 13.0083 93.0872 13.0483C93.0706 13.0883 93.0619 13.1311 93.0619 13.1764C93.0619 13.2219 93.0706 13.2647 93.0872 13.3047C93.1044 13.345 93.1278 13.3797 93.1572 13.4092C93.1869 13.4389 93.2219 13.4622 93.2622 13.4797C93.3028 13.4967 93.3458 13.5056 93.3919 13.5056ZM93.3919 12.7547C93.4514 12.7547 93.5069 12.7656 93.5589 12.7878C93.6111 12.8097 93.6567 12.8397 93.6958 12.8781C93.7344 12.9164 93.7653 12.9614 93.7878 13.0125C93.81 13.0639 93.8214 13.1186 93.8214 13.1764C93.8214 13.2344 93.81 13.2889 93.7878 13.34C93.7653 13.3911 93.7344 13.4358 93.6958 13.4739C93.6567 13.5122 93.6111 13.5425 93.5589 13.565C93.5069 13.5875 93.4514 13.5986 93.3919 13.5986C93.3314 13.5986 93.2747 13.5875 93.2219 13.565C93.1692 13.5425 93.1233 13.5122 93.0847 13.4739C93.0461 13.4358 93.0156 13.3911 92.9931 13.34C92.9708 13.2889 92.9594 13.2344 92.9594 13.1764C92.9594 13.1186 92.9708 13.0639 92.9931 13.0125C93.0156 12.9614 93.0461 12.9164 93.0847 12.8781C93.1233 12.8397 93.1692 12.8097 93.2219 12.7878C93.2747 12.7656 93.3314 12.7547 93.3919 12.7547Z" fill="black"></path>
</svg>