<svg width="115" height="20" viewBox="0 0 115 20" fill="none" xmlns="http://www.w3.org/2000/svg">
<path d="M16.1803 2.14167C16.0514 2.24305 15.9253 2.3475 15.8019 2.455C13.6947 4.28833 12.3608 6.9875 12.3608 9.99972C12.3608 13.0122 13.6947 15.7114 15.8019 17.5447C15.9253 17.6522 16.0514 17.7567 16.1803 17.8581C16.3092 17.7567 16.4353 17.6522 16.5586 17.5447C18.6658 15.7114 19.9997 13.0122 19.9997 9.99972C19.9997 6.9875 18.6658 4.28833 16.5586 2.455C16.4353 2.3475 16.3092 2.24305 16.1803 2.14167ZM22.3606 -9.53674e-07C20.3131 -9.53674e-07 18.4097 0.615554 16.8247 1.67111C16.9058 1.73778 16.9878 1.80305 17.0664 1.87139C19.4222 3.92111 20.7733 6.88361 20.7733 9.99972C20.7733 13.1161 19.4222 16.0786 17.0667 18.1283C16.9883 18.1964 16.9058 18.2619 16.8247 18.3286C18.4097 19.3842 20.3131 19.9997 22.3606 19.9997C27.8833 19.9997 32.3606 15.5228 32.3606 10C32.3606 4.47694 27.8833 -9.53674e-07 22.3606 -9.53674e-07ZM15.2942 18.1283C15.3722 18.1964 15.4547 18.2619 15.5358 18.3286C13.9508 19.3842 12.0472 20 10 20C4.47694 20 0 15.5228 0 10C0 4.47722 4.47694 -9.53674e-07 10 -9.53674e-07C12.0472 -9.53674e-07 13.9506 0.615554 15.5358 1.67111C15.4547 1.73778 15.3728 1.80305 15.2942 1.87111C12.9383 3.92111 11.5872 6.88361 11.5872 9.99972C11.5872 13.1161 12.9383 16.0789 15.2942 18.1283ZM52.3325 10.0431C52.3325 8.87444 53.0975 7.91444 54.3497 7.91444C55.5461 7.91444 56.3531 8.83278 56.3531 10.0431C56.3531 11.2536 55.5461 12.1717 54.3497 12.1717C53.0975 12.1717 52.3325 11.2119 52.3325 10.0431ZM57.7167 10.0431V6.71805H56.2697V7.525C55.8106 6.92667 55.115 6.55111 54.1689 6.55111C52.3044 6.55111 50.8436 8.01194 50.8436 10.0431C50.8436 12.0744 52.3044 13.5353 54.1689 13.5353C55.115 13.5353 55.8106 13.1597 56.2697 12.5614V13.3683H57.7167V10.0431ZM106.579 10.0431C106.579 8.87444 107.344 7.91444 108.597 7.91444C109.793 7.91444 110.6 8.83278 110.6 10.0431C110.6 11.2536 109.793 12.1717 108.597 12.1717C107.344 12.1717 106.579 11.2119 106.579 10.0431ZM113.582 13.0525V13.1572H113.678C113.701 13.1572 113.718 13.1528 113.731 13.1442C113.744 13.1356 113.751 13.1222 113.751 13.1044C113.751 13.0869 113.744 13.0742 113.731 13.0656C113.718 13.0569 113.701 13.0525 113.678 13.0525H113.582ZM113.679 12.9792C113.73 12.9792 113.769 12.9903 113.796 13.0128C113.823 13.0353 113.837 13.0656 113.837 13.1044C113.837 13.1367 113.826 13.1633 113.804 13.1844C113.782 13.2056 113.751 13.2183 113.711 13.2233L113.84 13.3711H113.739L113.621 13.2242H113.582V13.3711H113.498V12.9792H113.679ZM113.654 13.5058C113.7 13.5058 113.742 13.4969 113.782 13.48C113.821 13.4625 113.856 13.4392 113.885 13.4094C113.915 13.3797 113.938 13.345 113.955 13.305C113.972 13.265 113.981 13.2222 113.981 13.1767C113.981 13.1314 113.972 13.0886 113.955 13.0486C113.938 13.0086 113.915 12.9736 113.885 12.9439C113.856 12.9142 113.821 12.8911 113.782 12.8742C113.742 12.8572 113.7 12.8489 113.654 12.8489C113.608 12.8489 113.565 12.8572 113.525 12.8742C113.484 12.8911 113.449 12.9142 113.42 12.9439C113.39 12.9736 113.367 13.0086 113.35 13.0486C113.333 13.0886 113.324 13.1314 113.324 13.1767C113.324 13.2222 113.333 13.265 113.35 13.305C113.367 13.345 113.39 13.3797 113.42 13.4094C113.449 13.4392 113.484 13.4625 113.525 13.48C113.565 13.4969 113.608 13.5058 113.654 13.5058ZM113.654 12.7547C113.714 12.7547 113.769 12.7658 113.822 12.7878C113.874 12.8097 113.919 12.84 113.958 12.8783C113.997 12.9167 114.028 12.9614 114.05 13.0128C114.072 13.0642 114.084 13.1189 114.084 13.1767C114.084 13.2347 114.072 13.2892 114.05 13.3403C114.028 13.3911 113.997 13.4358 113.958 13.4742C113.919 13.5125 113.874 13.5428 113.822 13.5653C113.769 13.5875 113.714 13.5989 113.654 13.5989C113.594 13.5989 113.537 13.5875 113.484 13.5653C113.432 13.5428 113.386 13.5125 113.347 13.4742C113.309 13.4358 113.278 13.3911 113.256 13.3403C113.233 13.2892 113.222 13.2347 113.222 13.1767C113.222 13.1189 113.233 13.0642 113.256 13.0128C113.278 12.9614 113.309 12.9167 113.347 12.8783C113.386 12.84 113.432 12.8097 113.484 12.7878C113.537 12.7658 113.594 12.7547 113.654 12.7547ZM111.964 10.0431V4.04667H110.517V7.525C110.057 6.92667 109.362 6.55111 108.416 6.55111C106.551 6.55111 105.091 8.01194 105.091 10.0431C105.091 12.0744 106.551 13.5353 108.416 13.5353C109.362 13.5353 110.057 13.1597 110.517 12.5614V13.3683H111.964V10.0431ZM75.6644 7.845C76.5967 7.845 77.195 8.42917 77.3481 9.45889H73.8975C74.0506 8.49889 74.635 7.845 75.6644 7.845ZM75.6922 6.55111C73.7444 6.55111 72.3811 7.97 72.3811 10.0431C72.3811 12.1581 73.8003 13.5353 75.7897 13.5353C76.7914 13.5353 77.7097 13.2847 78.5167 12.6031L77.8069 11.5319C77.2506 11.9769 76.5411 12.2275 75.8731 12.2275C74.9408 12.2275 74.0922 11.7961 73.8836 10.5997H78.8228C78.8367 10.4189 78.8506 10.2381 78.8506 10.0431C78.8367 7.97 77.5567 6.55111 75.6922 6.55111ZM93.153 10.0431C93.153 8.87444 93.9183 7.91444 95.1705 7.91444C96.3669 7.91444 97.1739 8.83278 97.1739 10.0431C97.1739 11.2536 96.3669 12.1717 95.1705 12.1717C93.9183 12.1717 93.153 11.2119 93.153 10.0431ZM98.5375 10.0431V6.71805H97.0906V7.525C96.6314 6.92667 95.9358 6.55111 94.9897 6.55111C93.1253 6.55111 91.6644 8.01194 91.6644 10.0431C91.6644 12.0744 93.1253 13.5353 94.9897 13.5353C95.9358 13.5353 96.6314 13.1597 97.0906 12.5614V13.3683H98.5375V10.0431ZM84.9861 10.0431C84.9861 12.0606 86.3914 13.5353 88.5342 13.5353C89.5358 13.5353 90.2036 13.3128 90.9269 12.7422L90.2314 11.5736C89.6889 11.9633 89.1183 12.1717 88.4922 12.1717C87.3375 12.1581 86.4889 11.3231 86.4889 10.0431C86.4889 8.76333 87.3375 7.92833 88.4922 7.91444C89.1183 7.91444 89.6889 8.12305 90.2314 8.51278L90.9269 7.34417C90.2036 6.77361 89.5358 6.55111 88.5342 6.55111C86.3914 6.55111 84.9861 8.02583 84.9861 10.0431ZM103.63 6.55111C102.795 6.55111 102.252 6.94055 101.877 7.525V6.71805H100.444V13.3683H101.891V9.63972C101.891 8.54055 102.364 7.92833 103.309 7.92833C103.602 7.92833 103.908 7.97 104.214 8.09528L104.659 6.73194C104.339 6.60667 103.922 6.55111 103.63 6.55111ZM64.868 7.24667C64.1722 6.7875 63.2122 6.55111 62.155 6.55111C60.4714 6.55111 59.3864 7.35806 59.3864 8.67972C59.3864 9.765 60.1933 10.4328 61.6817 10.6414L62.3636 10.7389C63.1567 10.85 63.5322 11.0589 63.5322 11.4344C63.5322 11.9492 63.0036 12.2414 62.0158 12.2414C61.0142 12.2414 60.2906 11.9214 59.8036 11.5458L59.1219 12.6725C59.915 13.2569 60.9167 13.5353 62.0019 13.5353C63.9219 13.5353 65.0347 12.6308 65.0347 11.365C65.0347 10.1961 64.1583 9.58389 62.7114 9.37528L62.0297 9.27778C61.4036 9.19444 60.9028 9.06944 60.9028 8.62417C60.9028 8.13722 61.3758 7.845 62.1689 7.845C63.0175 7.845 63.8383 8.165 64.2419 8.41528L64.868 7.24667ZM83.5253 6.55111C82.6906 6.55111 82.1478 6.94055 81.7722 7.525V6.71805H80.3392V13.3683H81.7861V9.63972C81.7861 8.54055 82.2592 7.92833 83.2053 7.92833C83.4975 7.92833 83.8036 7.97 84.1097 8.09528L84.555 6.73194C84.235 6.60667 83.8175 6.55111 83.5253 6.55111ZM71.1844 6.71805H68.8192V4.70055H67.3583V6.71805H66.0089V8.03972H67.3583V11.0728C67.3583 12.6172 67.9567 13.5353 69.668 13.5353C70.2942 13.5353 71.0175 13.3406 71.4767 13.0206L71.0592 11.7822C70.6278 12.0328 70.1547 12.1581 69.7792 12.1581C69.0558 12.1581 68.8192 11.7128 68.8192 11.045V8.03972H71.1844V6.71805ZM49.5636 13.3683V9.19444C49.5636 7.62222 48.5619 6.565 46.9481 6.55111C46.0994 6.53722 45.2228 6.80139 44.6106 7.73361C44.1517 6.99639 43.4281 6.55111 42.4125 6.55111C41.7028 6.55111 41.0072 6.75972 40.4647 7.53889V6.71805H39.0175V13.3683H40.4783V9.68139C40.4783 8.52667 41.1186 7.91444 42.1064 7.91444C43.0664 7.91444 43.5533 8.54056 43.5533 9.6675V13.3683H45.0142V9.68139C45.0142 8.52667 45.6819 7.91444 46.6419 7.91444C47.6297 7.91444 48.1028 8.54056 48.1028 9.6675V13.3683H49.5636ZM32.0483 16.1964V15.8083H31.9469L31.8303 16.0753L31.7136 15.8083H31.6122V16.1964H31.6839V15.9036L31.7933 16.1561H31.8675L31.9767 15.9031V16.1964H32.0483ZM31.4064 16.1964V15.8744H31.5361V15.8089H31.2056V15.8744H31.3356V16.1964H31.4064Z" fill="#231F20"></path>
</svg>