<svg class="icon-fcb-help-filled" xmlns="http://www.w3.org/2000/svg" width="16" height="16" fill="none">
  <g clip-path="url(#a)">
    <path fill="#fff" d="M8 1.333A6.67 6.67 0 0 0 1.333 8 6.67 6.67 0 0 0 8 14.667 6.67 6.67 0 0 0 14.667 8 6.67 6.67 0 0 0 8 1.333Zm.667 11.334H7.334v-1.334h1.333v1.334Zm1.38-5.167-.6.613c-.48.487-.78.887-.78 1.887H7.334v-.333c0-.734.3-1.4.78-1.887l.826-.84c.247-.24.394-.573.394-.94 0-.733-.6-1.333-1.334-1.333-.733 0-1.333.6-1.333 1.333H5.334a2.666 2.666 0 1 1 5.333 0c0 .587-.24 1.12-.62 1.5Z"></path>
  </g>
  <defs>
    <clipPath id="a">
      <path fill="#fff" d="M0 0h16v16H0z"></path>
    </clipPath>
  </defs>
</svg>