<svg width="49" height="20" viewBox="0 0 49 20" fill="none" xmlns="http://www.w3.org/2000/svg">
  <g clip-path="url(#clip0_3948_1030197)">
  <path d="M21.6303 1.2388C23.3213 1.23338 25.0152 1.16571 26.7021 1.2388C28.9115 1.33624 30.6164 3.27434 30.5779 5.5129C30.5407 7.61747 28.7039 9.36609 26.4079 9.45406C25.517 9.4879 24.6233 9.48925 23.7338 9.45541C23.2691 9.43782 23.1619 9.59888 23.1646 10.0293C23.1784 11.648 23.155 13.268 23.1454 14.8867C23.0972 14.9368 23.0505 14.9868 23.0024 15.0369C22.5459 15.0816 22.0908 15.0965 21.6344 15.0329C21.5959 14.9422 21.5505 14.9259 21.4955 15.0207C21.2769 14.9056 21.3732 14.7013 21.3732 14.5389C21.3677 10.2648 21.3677 5.99066 21.3745 1.71791C21.3745 1.56226 21.2591 1.35248 21.4983 1.24827C21.5478 1.3173 21.5904 1.30782 21.6289 1.2388H21.6303ZM23.1729 5.30447C23.1729 5.91216 23.2114 6.52255 23.1619 7.12618C23.1179 7.65943 23.3282 7.77582 23.8245 7.75146C24.6 7.71356 25.3795 7.74875 26.1577 7.74063C27.604 7.72574 28.7094 6.73369 28.7589 5.4141C28.8084 4.09993 27.692 2.96441 26.2471 2.90215C25.3795 2.86561 24.5092 2.90215 23.6403 2.8805C23.2801 2.87102 23.1564 2.99283 23.1687 3.34607C23.1907 3.99842 23.1756 4.65077 23.1756 5.30447H23.1729Z" fill="#181733"></path>
  <path d="M37.3052 13.7891C35.6774 15.5905 33.5738 15.8869 31.8635 14.6377C30.853 13.8987 30.424 12.8999 30.5876 11.6899C30.7581 10.4245 31.5583 9.60295 32.7516 9.22535C34.0839 8.80308 35.467 8.76654 36.7992 9.23753C37.4083 9.45272 37.4097 9.22941 37.3368 8.77737C37.1883 7.85163 36.6013 7.27913 35.7461 7.00438C34.7204 6.67415 33.7663 6.85686 32.9345 7.58094C32.7516 7.74065 32.654 8.14938 32.3213 7.98426C31.8552 7.75418 31.4084 7.46725 31.0083 7.13973C30.8433 7.00438 31.1128 6.8325 31.2228 6.7134C32.4478 5.36945 34.0316 5.08117 35.7351 5.35727C37.9637 5.71863 39.0678 7.05311 39.0856 9.27678C39.0994 11.0105 39.0746 12.7456 39.1035 14.4793C39.1118 14.949 38.9825 15.1506 38.4986 15.0721C38.4546 15.0654 38.4078 15.0721 38.3611 15.0721C37.7121 15.0739 37.3767 14.7604 37.3547 14.1315C37.3519 14.0476 37.3313 13.965 37.3052 13.7904V13.7891ZM34.4235 13.8026C35.6787 13.8026 36.9422 12.8782 37.2681 11.7359C37.4193 11.2013 37.3079 10.8359 36.725 10.6397C35.7667 10.3162 34.8098 10.2093 33.8378 10.5382C32.8163 10.8833 32.3131 11.5938 32.4657 12.4397C32.6059 13.2247 33.4377 13.804 34.4249 13.804L34.4235 13.8026Z" fill="#181733"></path>
  <path d="M41.1264 19.265C41.8221 17.7776 42.4531 16.3836 43.1323 15.0112C43.3234 14.6241 43.3083 14.3264 43.1351 13.9447C41.9651 11.3813 40.8322 8.80034 39.6594 6.23831C39.4147 5.70371 39.4821 5.55348 40.0994 5.56837C41.3491 5.5995 41.3505 5.57243 41.8372 6.73231C42.6209 8.60003 43.4059 10.4678 44.2432 12.4627C44.9884 10.6505 45.6813 8.96546 46.3742 7.27909C46.4169 7.17488 46.4595 7.07067 46.5007 6.9651C46.9297 5.90582 47.7629 5.46641 49.0002 5.64687C48.3224 7.18165 47.6515 8.70289 46.9806 10.2228C45.7624 12.9865 44.5237 15.742 43.3399 18.5193C43.0856 19.1148 42.7597 19.3557 42.1246 19.269C41.8358 19.2284 41.5361 19.2623 41.125 19.2623L41.1264 19.265Z" fill="#181733"></path>
  <path d="M0.897461 4.49491C2.14583 2.03304 4.19575 0.555103 6.91797 0.204567C9.06275 -0.071531 11.1759 0.251937 12.9564 1.69333C13.3716 2.02898 13.564 2.27124 13.0333 2.64208C12.8684 2.75847 12.7405 2.9263 12.5948 3.06976C12.1892 3.46766 11.8482 3.99415 11.3601 4.22829C10.7772 4.50845 10.4252 3.78572 9.92479 3.58406C7.71402 2.68945 5.10178 3.59895 3.91803 5.74141C3.77779 5.99586 3.64993 6.25707 3.51519 6.51557C2.64216 5.84292 1.7705 5.16892 0.897461 4.49626V4.49491Z" fill="#181733"></path>
  <path d="M8.71398 15.9677C8.16128 16.0556 7.61134 16.0137 7.06002 15.9514C7.02565 15.8837 6.98303 15.877 6.93353 15.9365C4.19069 15.4804 2.1394 14.0891 0.889648 11.6124C1.76681 10.9478 2.64259 10.2833 3.51976 9.62012C4.24293 11.2456 5.37032 12.4312 7.20713 12.7858C8.50637 13.0362 9.73687 12.7952 10.8808 12.1388C11.7263 12.7925 12.5732 13.4462 13.4187 14.0999C12.2611 15.2179 10.8436 15.7674 9.25567 15.9501C9.06869 15.7836 8.88721 15.7809 8.7126 15.969L8.71398 15.9677Z" fill="#181733"></path>
  <path d="M13.4198 14.099C12.5742 13.4453 11.7273 12.7916 10.8818 12.1379C11.5197 11.6114 12.0531 11.0159 12.3364 10.2188C12.4794 9.8168 12.3831 9.69499 11.9638 9.7004C10.8653 9.71529 9.76675 9.68687 8.66962 9.71529C8.21454 9.72747 8.06193 9.57724 8.0853 9.13738C8.12792 8.35104 8.13205 7.56335 8.15129 6.77701C8.20079 6.73506 8.24891 6.69445 8.2984 6.6525C10.7292 6.6525 13.1585 6.64979 15.5893 6.64844C15.6333 6.68904 15.6773 6.731 15.7213 6.7716C15.7281 6.85957 15.7336 6.9489 15.7405 7.03687C15.6264 7.10454 15.658 7.14379 15.7666 7.1668C16.0829 9.8371 15.5027 12.2137 13.4211 14.0977L13.4198 14.099Z" fill="#181733"></path>
  <path d="M3.51954 9.62052C2.64238 10.2851 1.76659 10.9496 0.889434 11.6128C-0.305319 9.23886 -0.292946 6.86631 0.897683 4.49512C1.77072 5.16777 2.64238 5.84177 3.51542 6.51442C3.26107 7.54979 3.25144 8.58516 3.51954 9.62052Z" fill="#181733"></path>
  <path d="M8.71387 15.9677C8.88847 15.7796 9.06996 15.7836 9.25694 15.9487C9.07546 15.9555 8.89535 15.9609 8.71387 15.9677Z" fill="#1FA248"></path>
  <path d="M8.29723 6.65241C8.24774 6.69437 8.19962 6.73497 8.15012 6.77693C8.14187 6.67001 8.20649 6.64564 8.29723 6.65241Z" fill="#327EF3"></path>
  <path d="M15.7199 6.77267C15.6759 6.73206 15.6319 6.69011 15.5879 6.64951C15.68 6.64139 15.7268 6.67928 15.7199 6.77267Z" fill="#327EF3"></path>
  <path d="M15.7659 7.16801C15.6573 7.14365 15.6257 7.10576 15.7398 7.03809C15.7481 7.0814 15.7577 7.1247 15.7659 7.16801Z" fill="#327EF3"></path>
  <path d="M21.4961 15.0204C21.5511 14.9244 21.5965 14.9419 21.635 15.0326C21.5882 15.0286 21.5415 15.0245 21.4961 15.0204Z" fill="#55575E"></path>
  <path d="M6.93457 15.9381C6.98407 15.8772 7.02669 15.8853 7.06106 15.953L6.99644 15.9638L6.93595 15.9381H6.93457Z" fill="#1FA248"></path>
  </g>
  <defs>
  <clipPath id="clip0_3948_1030197">
  <rect width="49" height="19.1739" fill="white" transform="translate(0 0.115234)"></rect>
  </clipPath>
  </defs>
</svg>