<svg width="31" height="27" viewBox="0 0 31 27" fill="none" xmlns="http://www.w3.org/2000/svg">
  <path d="M5.94719 26.8151C5.65146 27.0542 5.34094 27.0614 5.01563 26.8366C4.69033 26.613 4.58682 26.3218 4.70511 25.9631L7.45543 16.7706L0.357837 11.6139C0.0325305 11.4046 -0.0709759 11.1057 0.0473173 10.7171C0.165611 10.3284 0.416983 10.1341 0.801436 10.1341H9.62907L12.5125 0.627778C12.5716 0.418519 12.668 0.269048 12.8017 0.179365C12.9342 0.0896824 13.0891 0.0448415 13.2666 0.0448415C13.444 0.0448415 13.599 0.0896824 13.7315 0.179365C13.8651 0.269048 13.9616 0.418519 14.0207 0.627778L16.9041 10.1341H25.7317C26.1162 10.1341 26.3676 10.3284 26.4858 10.7171C26.6041 11.1057 26.5006 11.4046 26.1753 11.6139L19.0777 16.7706L21.8281 25.9631C21.9463 26.3218 21.8428 26.613 21.5175 26.8366C21.1922 27.0614 20.8817 27.0542 20.586 26.8151L13.2666 21.2099L5.94719 26.8151ZM9.00803 21.1651L13.2666 17.8468L17.5251 21.1651L15.9282 15.6945L19.9206 12.8246H14.9523L13.2666 7.26429L11.5809 12.8246H6.61259L10.605 15.6945L9.00803 21.1651ZM27.0182 26.8151L25.4212 25.6044L23.1589 18.2056L28.2602 14.5286H30.2564L30.7444 15.133C31.0697 15.5372 31.0845 15.829 30.7888 16.0083L26.3084 19.2818L28.3046 25.9183C28.4229 26.277 28.2384 26.5161 27.751 26.6357L27.0182 26.8151ZM19.5213 6.54683L18.5011 3.00437L19.2108 0.627778C19.27 0.418519 19.3735 0.261275 19.5213 0.156047C19.6692 0.0520157 19.8171 0 19.9649 0C20.1424 0 20.305 0.0597882 20.4529 0.179365C20.6008 0.298942 20.7043 0.448413 20.7634 0.627778L22.5378 6.54683H19.5213Z" fill="white"></path>
  </svg>