<svg width="24" height="24" class="icon icon-fcb-chevron-down" viewBox="0 0 24 24" fill="currentColor" xmlns="http://www.w3.org/2000/svg">
  <path d="M11.9999 14.6503C11.8832 14.6503 11.7709 14.6337 11.6629 14.6003C11.5542 14.567 11.4582 14.5003 11.3749 14.4003L6.8499 9.90033C6.71657 9.75033 6.6499 9.57533 6.6499 9.37533C6.6499 9.17533 6.7249 9.00033 6.8749 8.85033C7.0249 8.71699 7.1999 8.65033 7.3999 8.65033C7.5999 8.65033 7.7749 8.71699 7.9249 8.85033L11.9999 12.9253L16.0999 8.85033C16.2332 8.70033 16.3999 8.62933 16.5999 8.63733C16.7999 8.64599 16.9749 8.71699 17.1249 8.85033C17.2749 9.00033 17.3499 9.17933 17.3499 9.38733C17.3499 9.59599 17.2749 9.76699 17.1249 9.90033L12.6249 14.4003C12.5416 14.5003 12.4459 14.567 12.3379 14.6003C12.2292 14.6337 12.1166 14.6503 11.9999 14.6503Z"></path>
</svg>