<svg width="47" height="15" viewBox="0 0 47 15" fill="none" xmlns="http://www.w3.org/2000/svg">
  <g clip-path="url(#clip0_3948_1030185)">
  <path d="M43.8145 0.947718C44.8053 5.41385 45.7975 9.88397 46.8037 14.4232C45.7213 14.4232 44.7137 14.4391 43.7088 14.4059C43.5509 14.4006 43.3156 14.1961 43.2662 14.042C43.1042 13.5387 43.0111 13.0154 42.8773 12.4351C41.4101 12.4351 39.9599 12.4165 38.5111 12.4577C38.325 12.463 38.0502 12.7445 37.984 12.9464C37.4118 14.7047 37.392 14.5281 35.6191 14.451C34.9412 14.4218 34.2605 14.4457 33.4966 14.4457C33.5826 14.208 33.6375 14.0261 33.7136 13.8534C35.402 10.042 37.0919 6.23059 38.7859 2.42182C39.3792 1.08849 39.6921 0.898581 41.2269 0.899909C42.0021 0.899909 42.7772 0.902565 43.5523 0.905221C43.5989 0.905221 43.6439 0.918502 43.8145 0.94639V0.947718ZM41.2241 4.93444C41.1719 4.92647 41.1184 4.91717 41.0662 4.90921C40.4701 6.45901 39.8739 8.00881 39.2637 9.59579H42.2529C41.9048 8.01678 41.5651 6.47627 41.2255 4.93444H41.2241Z" fill="#181733"></path>
  <path d="M0.804199 1.12712C1.03252 1.06603 1.26083 0.954474 1.49056 0.953146C3.39178 0.938538 5.29159 0.933226 7.19281 0.95049C8.22164 0.959786 8.75156 1.44053 8.96579 2.49631C9.44356 4.84027 9.91569 7.18688 10.3906 9.53084C10.4076 9.61317 10.4343 9.69285 10.4921 9.90135C10.6331 9.63575 10.7331 9.47639 10.805 9.3064C11.886 6.73934 12.9796 4.17758 14.0268 1.59856C14.2551 1.03681 14.5933 0.872137 15.1909 0.893385C16.1662 0.929242 17.1443 0.902681 18.283 0.902681C17.9166 1.7234 17.6221 2.38608 17.3275 3.04744C15.7237 6.65301 14.1113 10.2559 12.53 13.8695C12.337 14.3091 12.1101 14.4764 11.6069 14.4551C10.6922 14.4166 9.77476 14.4259 8.86008 14.4525C8.44009 14.4644 8.24419 14.3502 8.13567 13.9439C7.25342 10.645 6.32042 7.35687 5.4579 4.05408C5.20139 3.07267 4.69121 2.44717 3.63419 2.18024C2.6871 1.94385 1.77102 1.61317 0.840842 1.32234C0.828158 1.25726 0.815474 1.19219 0.804199 1.12579V1.12712Z" fill="#181733"></path>
  <path d="M34.3355 1.16173C34.086 2.25336 33.8803 3.14845 33.7055 3.91206C32.4047 3.82441 31.2039 3.73809 30.0017 3.66771C29.8185 3.65708 29.6325 3.71551 29.4464 3.74207C28.9306 3.81379 28.4754 4.07674 28.4895 4.55482C28.5008 4.89878 28.7855 5.33836 29.0913 5.54951C29.7678 6.01698 30.5288 6.3782 31.2673 6.762C32.781 7.54951 33.7577 8.66638 33.6111 10.3769C33.4645 12.09 32.4794 13.3052 30.822 13.9917C28.3993 14.9957 25.9301 14.8443 23.4694 14.1139C23.3002 14.0635 23.0747 13.7686 23.1001 13.6226C23.2425 12.8005 23.4539 11.9878 23.6483 11.1392C24.5546 11.337 25.3847 11.6106 26.2331 11.6757C27.0787 11.7407 27.9582 11.669 28.7897 11.5057C29.135 11.438 29.5874 11.0064 29.6395 10.689C29.6931 10.3662 29.4098 9.86027 29.1068 9.64513C28.4204 9.15642 27.6326 8.79121 26.8814 8.38351C25.7835 7.78723 24.9309 6.99573 24.6335 5.79387C24.3206 4.52694 24.7223 3.42733 25.6482 2.50303C27.1154 1.0369 29.025 0.643801 31.0489 0.708874C32.1101 0.743403 33.1643 0.993071 34.3355 1.16173Z" fill="#181733"></path>
  <path d="M23.5596 0.943917C22.5308 5.47911 21.5231 9.92267 20.507 14.4034H16.7651C17.0386 13.1856 17.3049 11.9891 17.5783 10.7938C18.2731 7.7487 18.9849 4.7062 19.6571 1.65574C19.7755 1.11789 20.0095 0.910716 20.5958 0.933293C21.5485 0.971805 22.5026 0.943917 23.5596 0.943917Z" fill="#181733"></path>
  </g>
  <defs>
  <clipPath id="clip0_3948_1030185">
  <rect width="46" height="14" fill="white" transform="translate(0.804199 0.702148)"></rect>
  </clipPath>
  </defs>
</svg>