<svg width="25" height="24" viewBox="0 0 25 24" fill="currentColor" xmlns="http://www.w3.org/2000/svg">
  <path d="M6 22C5.6 22 5.25 21.85 4.95 21.55C4.65 21.25 4.5 20.9 4.5 20.5V7.5C4.5 7.1 4.65 6.75 4.95 6.45C5.25 6.15 5.6 6 6 6H8.75V5.75C8.75 4.7 9.1125 3.8125 9.8375 3.0875C10.5625 2.3625 11.45 2 12.5 2C13.55 2 14.4375 2.3625 15.1625 3.0875C15.8875 3.8125 16.25 4.7 16.25 5.75V6H19C19.4 6 19.75 6.15 20.05 6.45C20.35 6.75 20.5 7.1 20.5 7.5V20.5C20.5 20.9 20.35 21.25 20.05 21.55C19.75 21.85 19.4 22 19 22H6ZM6 20.5H19V7.5H16.25V9.75C16.25 9.96667 16.1792 10.1458 16.0375 10.2875C15.8958 10.4292 15.7167 10.5 15.5 10.5C15.2833 10.5 15.1042 10.4292 14.9625 10.2875C14.8208 10.1458 14.75 9.96667 14.75 9.75V7.5H10.25V9.75C10.25 9.96667 10.1792 10.1458 10.0375 10.2875C9.89583 10.4292 9.71667 10.5 9.5 10.5C9.28333 10.5 9.10417 10.4292 8.9625 10.2875C8.82083 10.1458 8.75 9.96667 8.75 9.75V7.5H6V20.5ZM10.25 6H14.75V5.75C14.75 5.11667 14.5333 4.58333 14.1 4.15C13.6667 3.71667 13.1333 3.5 12.5 3.5C11.8667 3.5 11.3333 3.71667 10.9 4.15C10.4667 4.58333 10.25 5.11667 10.25 5.75V6Z"></path>
</svg>