<svg xmlns="http://www.w3.org/2000/svg" xml:space="preserve" style="fill-rule:evenodd;clip-rule:evenodd;stroke-linejoin:round;stroke-miterlimit:2" fill="currentColor" width="24" height="24" viewBox="0 0 24 24"><path d="M-109.522-23.359c-1.056-4.454-1.728-8.834-2.201-12.431-1.562 3.05-3.141 7.186-4.125 10.841a67.796 67.796 0 0 1-7.344-2.603c.868-2.239 2.298-4.817 3.238-6.889 1.371.933 2.565 1.796 3.912 2.726-.549-1.65-1.347-3.863-2.114-6.914 1.067-2.125 2.31-3.561 3.535-5.543.375.232 2.094.889 4.772 2.658-.414 2.662-.569 5.131-.735 7.762 1.374-1.978 2.756-3.856 4.298-5.689 1.767 1.115 3.359 2.19 5.124 3.28-.805-2.177-1.325-4.657-1.976-6.864 1.56-1.792 3.021-3.017 4.608-4.641-1.958.215-3.826.622-5.84.937-.549-2.103-1.011-4.328-1.273-6.472-.031-.026-.069-.049-.103-.072a85.699 85.699 0 0 0-2.718 7.456c-1.952.44-4.07.96-6.173 1.635l.009.01c-1.476.488-2.979.938-4.499 1.523-.469-2.279-.807-4.667-.929-6.952a57.022 57.022 0 0 0-2.105 8.211c-1.407.568-3.156 1.541-4.671 2.466 1.332 1.016 2.47 1.695 3.819 2.727-.142 2.725-.46 5.771-.286 8.603a36.649 36.649 0 0 1-1.191-.506c2.411 3.626 4.09 6.43 6.61 10.048-.74 3.405-1.965 9.507-2.391 12.86 1.849-1.401 4.95-3.582 7.17-5.097 2.952 3.527 8.133 8.451 11.799 11.672-1.485-3.79-4.094-11.924-5.528-16.488 2.425-1.984 4.523-4.094 7.417-6.463-3.61-.514-6.764-1.061-10.109-1.791m67.286-4.24c.171-2.831-.147-5.873-.289-8.598 1.351-1.032 2.49-1.711 3.821-2.727-1.517-.925-3.262-1.898-4.675-2.466a57.54 57.54 0 0 0-2.102-8.211c-.124 2.285-.46 4.673-.93 6.952-1.521-.585-3.031-1.039-4.501-1.528v-.005c-2.108-.675-4.219-1.195-6.173-1.635a82.81 82.81 0 0 0-2.783-7.619c-.26 2.217-.736 4.529-1.307 6.707-2.012-.315-3.881-.722-5.844-.937 1.591 1.624 3.052 2.849 4.608 4.641-.652 2.207-1.165 4.687-1.974 6.864 1.77-1.09 3.354-2.165 5.119-3.28 1.543 1.833 2.932 3.711 4.306 5.689-.169-2.631-.322-5.1-.736-7.762 2.687-1.776 4.137-2.229 4.779-2.658 1.217 1.982 2.466 3.418 3.53 5.543-.76 3.051-1.558 5.264-2.114 6.914 1.352-.93 2.548-1.793 3.917-2.726.938 2.072 2.369 4.646 3.236 6.886a67.16 67.16 0 0 1-7.352 2.606c-.989-3.655-2.564-7.791-4.13-10.841-.474 3.597-1.143 7.977-2.192 12.431-3.355.73-6.499 1.277-10.114 1.791 2.899 2.369 4.998 4.479 7.412 6.463-1.424 4.564-4.039 12.698-5.523 16.488 3.665-3.221 8.842-8.145 11.804-11.672 2.212 1.515 5.314 3.696 7.166 5.097-.427-3.353-1.656-9.455-2.39-12.86 2.519-3.618 4.192-6.422 6.606-10.048-.388.179-.785.336-1.175.501m-23.9 6.024c-4.192.52-8.26.975-12.486 1.018-1.244-4.148-2.835-9.198-4.155-13.404-1.291 4.17-2.854 9.256-4.161 13.404l-12.448-1.027c3.383 3.316 6.128 6.126 9.252 9.145C-91.724-8.3-93.991-1.867-95.46 2.23-92 0-86.398-3.383-82.777-5.726c3.546 2.279 9.234 5.722 12.693 7.952-1.393-4.064-3.783-10.586-5.321-14.669 3.227-3.045 5.983-5.873 9.269-9.132m-58.365-6.571a32.823 32.823 0 0 1-3.395-1.818 4.212 4.212 0 0 1-.438-.311c-.178-.414-.958-2.53-.193-5.146.631-2.198 1.689-3.503 1.689-3.503s-1.801 1.265-2.819 2.17c-.393.353-.928.819-1.338 1.176-.068-.973-.049-1.984-.028-2.866.028-1.078.142-2.723.142-2.723-7.489 11.483.491 25.064.491 25.064 1.958 4.006 4.479 6.537 4.996 7.034 0 0-1.159-1.899-2.006-4.397-1.856-5.436-.95-9.843-.95-9.843.216-.311 3.486-4.316 3.849-4.837m89.862-13.021s.112 1.645.134 2.723c.016.882.035 1.893-.022 2.866-.416-.357-.95-.823-1.347-1.176-1.017-.905-2.819-2.17-2.819-2.17s1.054 1.305 1.694 3.503c.763 2.616-.022 4.732-.193 5.146-.13.102-.274.205-.444.311a32.233 32.233 0 0 1-3.393 1.818c.359.521 3.636 4.526 3.847 4.837 0 0 .905 4.407-.939 9.843-.852 2.498-2.013 4.397-2.013 4.397.514-.497 3.039-3.028 4.995-7.034 0 0 7.983-13.581.5-25.064m-61.455 4.17c1.801-1.587 4.004-3.325 5.611-4.773 1.742 1.083 4.252 2.924 6.001 3.973-.731-1.978-1.885-5.019-2.578-7.042 1.547-1.405 2.741-2.724 4.256-3.931-2.031-.024-3.689.049-5.681.147-.713-2.031-1.338-4.73-1.905-6.813-.685 2.092-1.447 4.954-2.043 7.063-2.016.195-4.029.395-6.082.707 1.605 1.209 2.755 2.115 4.437 3.303-.518 2.244-1.382 4.879-2.016 7.366m20.947-18.439c-.566 2.083-1.193 4.782-1.911 6.813-1.987-.098-3.642-.171-5.67-.147 1.511 1.207 2.707 2.526 4.252 3.931-.686 2.023-1.846 5.064-2.575 7.042 1.744-1.049 4.254-2.89 6.003-3.973 1.601 1.448 3.806 3.186 5.613 4.773-.645-2.487-1.507-5.122-2.013-7.366 1.676-1.188 2.82-2.094 4.429-3.303-2.049-.312-4.07-.512-6.086-.707-.596-2.109-1.351-4.971-2.042-7.063" transform="translate(28.932 17.442) scale(.20458)"></path></svg>