<svg width="49" height="21" viewBox="0 0 49 21" fill="none" xmlns="http://www.w3.org/2000/svg">
  <path d="M13.3924 5.90063C10.5596 8.09926 11.3331 11.3362 13.7635 12.5662C13.2182 14.1098 12.4638 15.5209 11.1467 16.561C10.5701 17.0175 9.86273 17.068 9.22857 16.7596C7.93413 16.129 6.69544 16.1778 5.41146 16.7771C4.68148 17.1185 3.92189 16.9914 3.35917 16.4095C1.00548 13.9722 -0.201849 11.1098 0.535093 7.7003C0.918373 5.92502 2.10306 4.72814 3.96893 4.5034C4.66058 4.41978 5.43062 4.63058 6.10833 4.86926C6.83308 5.12536 7.47071 5.16194 8.17281 4.84487C9.41325 4.28388 10.6955 4.14625 11.9377 4.81525C12.4533 5.094 12.8906 5.52084 13.3924 5.90063Z" fill="#181733"></path>
  <path d="M18.8492 11.5804V16.7739H16.5024V1.61688C18.7533 1.61688 20.9816 1.43047 23.1663 1.66392C25.8388 1.95138 27.4242 4.22493 27.2169 6.97583C27.0182 9.61349 25.0879 11.4898 22.452 11.5717C21.2847 11.6083 20.114 11.5787 18.8492 11.5787V11.5804ZM18.9032 3.62213V9.60826C19.8648 9.60826 20.7743 9.61697 21.6819 9.60304C21.9624 9.59955 22.2447 9.55251 22.5217 9.50025C23.9921 9.21627 24.7952 8.16225 24.7883 6.53854C24.7813 4.92528 23.9642 3.80854 22.4659 3.64652C21.3126 3.52108 20.1349 3.62213 18.9032 3.62213Z" fill="#181733"></path>
  <path d="M34.9728 10.1692C35.2062 8.66051 34.7533 7.71799 33.6505 7.45318C32.4936 7.17443 30.9414 7.32252 30.4396 8.93403H28.3333C28.4291 7.29116 29.5337 6.08383 31.3699 5.64828C32.7132 5.32946 34.0477 5.38173 35.3177 5.97407C36.5163 6.53331 37.2515 7.48454 37.2777 8.81731C37.3282 11.401 37.2968 13.9864 37.2968 16.57C37.2968 16.6292 37.2637 16.6885 37.2393 16.7773H35.1383V15.2129C34.1905 16.2826 33.1121 16.9063 31.7306 16.9934C29.4117 17.138 27.7427 15.5857 27.8734 13.3766C27.9413 12.225 28.518 11.3243 29.5703 10.9654C30.64 10.6013 31.7968 10.4759 32.924 10.3034C33.6034 10.2006 34.2985 10.2093 34.9728 10.1692ZM34.9693 11.7233C33.7724 11.847 32.5982 11.901 31.4536 12.11C30.5616 12.2721 30.1225 12.9149 30.1643 13.6641C30.2079 14.4202 30.7253 14.9515 31.5877 15.1223C33.7236 15.5456 35.2881 14.0421 34.9693 11.7233Z" fill="#181733"></path>
  <path d="M39.4032 20.8312V19.1308C39.4938 19.1169 39.574 19.0925 39.6524 19.0942C41.2395 19.1273 41.7796 18.751 42.1716 17.2458C42.2465 16.9566 42.2081 16.5977 42.1054 16.3102C40.9311 12.9983 39.736 9.69517 38.5461 6.39026C38.4729 6.18816 38.4067 5.98433 38.3057 5.68816C39.0931 5.68816 39.8231 5.66028 40.5461 5.71255C40.6855 5.723 40.8597 6.02091 40.9207 6.21778C41.7569 8.86415 42.5775 11.5158 43.4033 14.1673C43.4486 14.3102 43.5026 14.4513 43.6019 14.7336C43.736 14.3294 43.8353 14.0471 43.9259 13.7614C44.7064 11.2562 45.4974 8.75439 46.2552 6.24217C46.3842 5.81533 46.5584 5.63938 47.0148 5.67422C47.5741 5.71777 48.1385 5.68467 48.804 5.68467C48.7222 5.97039 48.6716 6.18991 48.5967 6.39897C47.3023 10.0349 46.0166 13.6743 44.7012 17.3033C44.4521 17.9932 44.1542 18.6813 43.7691 19.3016C42.9015 20.7023 41.0461 21.3277 39.4015 20.8312H39.4032Z" fill="#181733"></path>
  <path d="M7.06119 4.14127C6.84865 2.33463 8.30163 0.639491 10.2163 0.404297C10.732 2.07853 8.94972 4.21445 7.06119 4.14127Z" fill="#181733"></path>
</svg>