<svg xmlns="http://www.w3.org/2000/svg" width="24" height="24" viewBox="0 0 24 24" fill="none"><path fill="currentColor" fill-rule="evenodd" d="M9.183 5.677c-1.102.225-2.275.719-2.275.719.58-.79 1.76-1.76 1.76-1.76-.325-.61-.612-1.512-.612-1.512s1.363.075 2.43.422c0 0 1.813-.994 3.69-1.025 0 0-1.368.791-1.95 1.527.154.081 1.25.409 2.102.911 0 0-1.541.044-2.956.238 0 0-.498.702-.92 2.302 0 0-.725-.8-1.269-1.822Z" clip-rule="evenodd"></path><path fill="currentColor" fill-rule="evenodd" d="M16.506 7c-.933-1.038-2.179-2.041-2.179-2.041 1.146.016 2.847.692 2.847.692.332-.628.565-1.493.565-1.493s.65 1.101.946 2.319c0 0 1.35.809 2.37 2.162 0 0-1.064-.222-1.847-.218-.002.175.287 1.611.224 2.599 0 0-.867-1.409-1.68-2.582 0 0-1.308.023-2.681.399 0 0 .77-.889 1.435-1.837Zm1.496 6.769c.689-1.161 1.43-2.749 1.43-2.749.228 1.062.248 2.417.248 2.417.683-.144 1.893-.724 1.893-.724s-.54 1.434-1.747 2.535c0 0 .123.86.137 1.993 0 0-.854-.38-1.562-.805-.151.087-1.007.67-2.453.969 0 0 .613-.957 1.119-1.89 0 0-1.008-.665-1.807-1.753 0 0 1.553.195 2.742.007ZM13.132 11.4c1.056 1.308 2.128 2.362 2.128 2.362-1.75-.26-3.172-.751-3.172-.751-.712 1.14-1.488 2.465-1.488 2.465s-.434-1.438-.507-3.07c0 0-.88-.308-2.5-.946 0 0 1.118-.694 2.47-1.073-.078-.155.13-2.096.389-2.889 0 0 .789 1.28 1.431 2.22 0 0 1.258-.427 3.188-.881 0 0-1.056 1.34-1.939 2.563ZM3.518 16.35a9.475 9.475 0 0 1-.297-.611c.019-.694.08-1.588.258-2.281 0 0-.508-.353-1.034-.812-.006-.08-.013-.16-.018-.241.302-.113.944-.34 1.504-.47.064-.162.413-1.286 1.087-2.061 0 0 .045.764.228 1.78 0 0 1.064-.24 2.346-.193 0 0-1.188.935-1.936 1.886.272 1.096.817 2.148.817 2.148a22.962 22.962 0 0 1-1.678-1.074c-.303.36-.912 1.333-1.277 1.929Zm6.787 4.976a8.033 8.033 0 0 1-.394-.082c-.445-.477-1.125-1.257-1.643-2.076 0 0-1.914-.154-3.262-.745 0 0 1.115-.21 2.34-.84-.08-.157-.546-1.018-.873-2.088 0 0 1.17.945 2.036 1.498 0 0 1.102-.634 2.091-1.516 0 0-.25 1.22-.39 2.612.64.365 1.284.721 1.934 1.068-.998.145-1.98.114-1.98.114-.04.774.064 1.586.141 2.055Zm8.324-2.487s-1.32.35-2.607.397c0 0-.01-.878-.074-1.83 0 0-.684.97-1.577 1.904-1.054-.015-2.227-.153-2.227-.153.403.409.816.807 1.241 1.193-.794.675-1.528 1.126-1.528 1.126a9.579 9.579 0 0 0 6.772-2.636Z" clip-rule="evenodd"></path><path fill="currentColor" fill-rule="evenodd" d="M2.545 10.282s.705-.88 1.528-1.593c0 0 .275.508.946 1.185 0 0 .005-.827.101-2.125.752-.665 1.789-1.353 1.789-1.353-.86-.054-1.501-.013-1.501-.013.2-.984.65-2.041.65-2.041a9.61 9.61 0 0 0-3.513 5.94Z" clip-rule="evenodd"></path></svg>