<svg width="24" height="24" viewBox="0 0 24 24" fill="currentColor" xmlns="http://www.w3.org/2000/svg"><path d="M14.66 5.465a13.394 13.394 0 0 0-1.728-.04c-2.588.125-5.07.904-7.025 2.14a8.428 8.428 0 0 1 .548 3.424 8.17 8.17 0 0 1 1.155-.2c1.262-3.042 3.885-4.766 7.05-5.324ZM16.578 10.487c-1.062-.6-2.658-1.198-4.212-1.55l-.092.01a5.522 5.522 0 0 0-.711.157c-.9.299-1.571.932-2.07 1.664 1.746.131 3.463.643 4.643 1.315.22.124.466.092.715-.043l1.735-.984c.241-.139.238-.438 0-.573l-.008.004ZM3.839 10.844l.138-.31c.093-.224.171-.451.235-.69.082-.351.103-.7.078-1.037-1.326 1.237-2.207 2.744-2.403 4.408.836-.672 1.515-1.461 1.952-2.371Z"></path><path d="M5.907 7.57c-.576.361-1.118.777-1.617 1.24.025.341 0 .69-.078 1.038a5.833 5.833 0 0 1-.235.69l-.138.309c-.438.906-1.117 1.695-1.952 2.37-.153 1.287.103 2.67.882 4.092.067.121.21.196.366.196h.654c.103 0 .17-.09.131-.167-.33-.65-1.41-3.033-.27-4.629.11-.142.228-.277.356-.405l.18-.17c.62-.555 1.405-.921 2.269-1.138a8.438 8.438 0 0 0-.548-3.423v-.004ZM11.56 9.104c.234-.067.473-.12.71-.156l.093-.01c-.786-.179-1.56-.292-2.25-.314-.11 0-.125-.138-.014-.153 2.8-.415 5.943.38 8.208 1.59.22.117.508.099.7-.05l2.964-1.65c.242-.135.246-.433.008-.569-1.977-1.14-4.671-2.1-7.32-2.328-3.163.558-5.79 2.282-7.049 5.325a10.699 10.699 0 0 1 1.88-.021c.498-.736 1.17-1.369 2.07-1.664Z"></path><path d="M6.199 16.745H7.95v.757h-2.56v-4.02H6.2v3.263Zm3.06-2.79a.46.46 0 0 1-.34.134.475.475 0 0 1-.342-.135.448.448 0 0 1-.139-.334c0-.131.046-.245.139-.334a.475.475 0 0 1 .341-.135c.135 0 .249.046.341.135a.448.448 0 0 1 .139.334.448.448 0 0 1-.139.334Zm-.718 3.547V14.53H9.3v2.972H8.54Zm3.338 0c.295 0 .544.078.74.231.195.153.32.37.37.643l-.783.21a.36.36 0 0 0-.146-.26.533.533 0 0 0-.327-.095h-.974c-.277 0-.5-.075-.668-.22a.729.729 0 0 1-.252-.577c0-.152.035-.295.11-.43a.838.838 0 0 1 .292-.316 1.212 1.212 0 0 1-.395-.924c0-.37.131-.686.398-.935.267-.25.597-.373.995-.373.231 0 .445.046.65.138a.64.64 0 0 1 .271-.38.852.852 0 0 1 .494-.139h.245v.7h-.21a.344.344 0 0 0-.198.057.226.226 0 0 0-.103.157c.17.22.255.48.255.771 0 .373-.135.683-.401.932-.267.248-.6.373-.999.373a1.68 1.68 0 0 1-.49-.075c-.1.06-.15.146-.15.256 0 .071.029.132.089.178.06.046.135.07.227.07h.967l-.007.008Zm-.643-2.325a.627.627 0 0 0-.445.167.555.555 0 0 0-.174.423c0 .17.057.31.174.423a.606.606 0 0 0 .445.167.612.612 0 0 0 .44-.167.558.558 0 0 0 .178-.423c0-.17-.06-.309-.177-.423a.618.618 0 0 0-.441-.167Zm4.265-.647h.758v2.972H15.5v-.355c-.259.284-.582.426-.966.426-.413 0-.761-.15-1.035-.448-.277-.299-.416-.668-.416-1.109 0-.44.139-.81.416-1.109a1.354 1.354 0 0 1 1.035-.448c.387 0 .71.142.966.423v-.352Zm-.82 2.307c.234 0 .43-.078.586-.234a.796.796 0 0 0 .235-.587.796.796 0 0 0-.235-.586.796.796 0 0 0-.587-.235.788.788 0 0 0-.583.235.796.796 0 0 0-.234.586c0 .235.078.43.234.587a.788.788 0 0 0 .583.234Zm6.025-2.598h-1.813v.906h1.578v.757h-1.578v1.604h-.807v-4.02h2.62v.756-.003Z"></path></svg>