<svg width="32" height="32" viewBox="0 0 32 32" fill="none" xmlns="http://www.w3.org/2000/svg">
<path d="M20.9212 0.498978L21.0828 0.604506C22.8559 1.76416 24.2834 1.97642 26.4557 1.97642C27.2216 1.97642 28.0431 1.83424 28.8305 1.56584L29.0366 1.49536L30.0666 2.92102L29.9606 3.0608C26.1341 8.08292 29.1179 13.5049 31.23 15.6693L31.4253 15.8696L31.2261 16.0659C30.9492 16.3391 30.4696 16.8317 30.1132 17.2009L29.9928 17.3267L30.0005 17.4987L30.0024 17.5589C30.0044 17.6027 30.0058 17.6481 30.0148 17.7273L30.0181 17.7588C30.1969 21.1083 29.3181 23.8597 27.4062 25.9357C25.3744 28.1419 22.1699 29.47 18.3827 29.6751L18.2369 29.6835L18.1287 29.781C17.1644 30.648 16.1856 31.368 16.1752 31.376L16.0045 31.5014L15.8338 31.3768C15.7933 31.3469 14.8266 30.6364 13.8749 29.781L13.7667 29.6835L13.6207 29.6751C9.83367 29.47 6.62891 28.1419 4.5971 25.9357C2.68472 23.8589 1.80592 21.1075 1.98562 17.758L1.98829 17.7265C1.99696 17.6521 1.99869 17.6114 2.00058 17.5644L2.00089 17.5521L2.00105 17.5505L2.00278 17.4987L2.01034 17.3263L1.89002 17.2009C1.55393 16.8524 1.06099 16.3455 0.777193 16.0659L0.578125 15.8696L0.773411 15.6693C2.88568 13.5049 5.869 8.08292 2.04279 3.0608L1.93632 2.92102L2.9671 1.49536L3.17294 1.56584C3.96039 1.83424 4.7814 1.97642 5.54759 1.97642C7.71986 1.97642 9.14718 1.76416 10.9203 0.604506L11.0823 0.498978L11.2418 0.608094C12.806 1.68053 14.3186 2.17992 16.0019 2.17992C17.6851 2.17992 19.1973 1.68053 20.7616 0.608094L20.9212 0.498978" fill="#CAA91E"></path>
<path d="M4.34759 12.8996C5.54627 10.1844 5.99275 6.69709 3.97656 3.28861C4.48036 3.37702 5.00908 3.43198 5.54502 3.43198C7.60844 3.43198 9.23311 3.2464 11.058 2.22773C12.4963 3.08711 14.1082 3.63349 15.9956 3.63508C17.8901 3.63349 19.5013 3.08711 20.94 2.22773C22.7652 3.2464 24.3899 3.43198 26.4531 3.43198C26.9891 3.43198 27.5178 3.37702 28.0268 3.28025C26.0057 6.69709 26.4516 10.1844 27.6505 12.8996H4.34759Z" fill="white"></path>
<path d="M27.6508 12.8996C26.4519 10.1844 26.006 6.69709 28.0271 3.28025C27.5181 3.37702 26.9894 3.43198 26.4534 3.43198C24.3902 3.43198 22.7655 3.2464 20.9403 2.22773C19.5016 3.08711 17.8904 3.63349 15.9959 3.63508C15.9777 3.63508 15.9598 3.63429 15.9414 3.63429V12.8996H27.6508" fill="#EDC720"></path>
<path d="M25.0859 26.0221C27.3822 24.3643 28.7383 21.7168 28.5391 17.8548C28.5161 17.6353 28.4995 17.6226 28.4819 17.4012H25.0859V26.0221Z" fill="#293D81"></path>
<path d="M21.4492 27.684C22.8161 27.3192 24.0462 26.7712 25.0841 26.0217V17.4012H21.4492V27.684" fill="#7B1941"></path>
<path d="M6.91406 26.0217C7.9524 26.7712 9.18209 27.3192 10.5494 27.684V17.4012H6.91406V26.0217" fill="#7B1941"></path>
<path d="M3.46071 17.8548C3.26148 21.7168 4.61765 24.3647 6.91401 26.0225V17.4012H3.51772C3.50008 17.6226 3.48386 17.6353 3.46071 17.8548" fill="#293D81"></path>
<path d="M16.0099 19.3075C16.6748 19.3075 17.2932 19.4979 17.8187 19.8216V17.4012H14.1836V19.8328C14.7125 19.5023 15.3377 19.3075 16.0099 19.3075" fill="#7B1941"></path>
<path d="M16.0099 26.0731C15.3377 26.0731 14.7125 25.8787 14.1836 25.5478V28.2255C14.2477 28.2287 14.3113 28.2327 14.3757 28.2363C15.5832 28.2423 16.678 28.2486 17.6263 28.2363C17.6909 28.2327 17.7544 28.2287 17.8187 28.2255V25.559C17.2932 25.8827 16.6748 26.0731 16.0099 26.0731" fill="#7B1941"></path>
<path d="M17.8164 17.4012V19.8208C18.7858 20.4182 19.4329 21.4787 19.4329 22.6901C19.4329 23.9019 18.7858 24.9616 17.8164 25.5594V28.2256C19.1 28.1614 20.3221 27.9846 21.4514 27.684V17.4012H17.8164" fill="#293D81"></path>
<path d="M12.5836 22.6901C12.5836 21.4859 13.2225 20.4317 14.1822 19.832V17.4012H10.5469V27.684C11.6761 27.9846 12.8985 28.1614 14.1822 28.2256V25.5482C13.2225 24.9485 12.5836 23.8948 12.5836 22.6901Z" fill="#293D81"></path>
<path d="M5.16797 6.33271C5.41161 7.5079 5.41995 8.66118 5.26324 9.75831H8.79417V12.8996H12.2621V9.75831H15.957V6.33271H12.2621V2.84857C11.8475 2.66778 11.4469 2.4591 11.0595 2.22773C10.2847 2.66021 9.54557 2.94136 8.79417 3.12335V6.33271H5.16797" fill="#C01A39"></path>
<path d="M23.4178 12.8996V3.17114C23 3.08113 22.587 2.96127 22.1719 2.80317V12.8996H23.4178" fill="#C01A39"></path>
<path d="M18.4336 12.8996V3.31052C18.0324 3.42003 17.6174 3.50366 17.1875 3.55821V12.8996H18.4336Z" fill="#C01A39"></path>
<path d="M25.914 12.8996V3.42601C25.4831 3.41804 25.0694 3.39853 24.668 3.36069V12.8996H25.914" fill="#C01A39"></path>
<path d="M20.9259 12.8996V2.23569C20.5251 2.47463 20.1101 2.68808 19.6797 2.87366V12.8996H20.9259Z" fill="#C01A39"></path>
<path d="M29.6904 17.2212C29.7262 17.5692 29.7054 17.5557 29.7296 17.7592C30.146 25.4817 24.6994 29.1279 18.1171 29.3971C17.1109 30.3254 16.0028 31.1418 16.0028 31.1418C16.0028 31.1418 14.8892 30.3254 13.8829 29.3971C7.30046 29.1279 1.85366 25.4817 2.27023 17.7592C2.29464 17.5557 2.27369 17.5692 2.3096 17.2212C1.93225 16.8273 1.30749 16.1834 0.977858 15.858C3.3388 13.4384 6.09347 7.90213 2.26975 2.8828L3.07736 1.82509C3.84182 2.08594 4.69179 2.25161 5.54588 2.25161C7.73847 2.25161 9.23586 2.03656 11.0769 0.832302C12.5321 1.83027 14.1102 2.4551 16.0002 2.4551C17.89 2.4551 19.468 1.83027 20.9234 0.832302C22.764 2.03656 24.2609 2.25161 26.454 2.25161C27.3079 2.25161 28.158 2.08594 28.9225 1.82509L29.7301 2.8828C25.9062 7.90213 28.6611 13.4384 31.0225 15.858C30.6925 16.1834 30.0676 16.8273 29.6904 17.2212V17.2212ZM32 15.8676L31.5247 15.3797C29.4964 13.3014 26.6278 8.10125 30.2873 3.29737L30.5746 2.91944L29.191 1.00474L28.6949 1.17399C27.9497 1.42846 27.1748 1.56227 26.454 1.56227C24.3639 1.56227 22.9942 1.36076 21.3083 0.258053L20.9139 -6.05441e-07L20.5256 0.266813C19.033 1.28948 17.5956 1.76576 16.0002 1.76576C14.4047 1.76576 12.9665 1.28948 11.4746 0.266813L11.0861 -6.05441e-07L10.6919 0.258053C9.00577 1.36076 7.63606 1.56227 5.54588 1.56227C4.82488 1.56227 4.05018 1.42846 3.3051 1.17399L2.809 1.00474L1.42481 2.91944L1.71224 3.29737C5.37199 8.10125 2.50347 13.3014 0.475622 15.3797L0 15.8676L0.485073 16.3455C0.745717 16.6023 1.20811 17.0766 1.59018 17.4741C1.58924 17.496 1.58892 17.5159 1.58813 17.5354C1.58656 17.5768 1.58546 17.6114 1.57742 17.6779L1.57365 17.7226C1.3867 21.1872 2.30125 24.0401 4.29116 26.2013C6.40057 28.492 9.69762 29.8619 13.5965 30.0729C14.5623 30.9423 15.5431 31.6627 15.587 31.6949L16.0037 32L16.4195 31.6942C16.4631 31.6619 17.4384 30.9415 18.4036 30.0729C22.3024 29.8619 25.5993 28.492 27.7084 26.2013C29.6988 24.0401 30.613 21.1876 30.4264 17.7226L30.4224 17.6779C30.4144 17.611 30.4131 17.5764 30.4122 17.5346C30.4112 17.5159 30.4104 17.496 30.4097 17.4741C30.792 17.0766 31.2548 16.6019 31.5149 16.3455L32 15.8676" fill="#040606"></path>
<path d="M3.56391 17.8655C3.57415 17.7695 3.58281 17.7138 3.591 17.6624C3.5984 17.615 3.60549 17.5708 3.61257 17.5051H28.3839C28.391 17.5716 28.3984 17.615 28.4055 17.6628C28.4137 17.7138 28.4225 17.7695 28.4326 17.8603C28.5827 20.7726 27.8501 23.1254 26.255 24.8541C24.4186 26.8429 21.4328 27.977 17.622 28.1327C16.7131 28.1451 15.6696 28.1399 14.5212 28.1335L14.3775 28.1327C10.5639 27.977 7.5777 26.8429 5.742 24.8541C4.14664 23.1258 3.41414 20.7726 3.56391 17.8655V17.8655ZM3.41288 17.3932C3.40343 17.5115 3.39414 17.5676 3.38437 17.6305C3.37571 17.6847 3.36658 17.7436 3.35539 17.8496C3.20231 20.8192 3.95323 23.2225 5.58751 24.9935C7.46179 27.0241 10.4984 28.1809 14.3726 28.3394L14.5199 28.3398C15.1647 28.3438 15.7764 28.3466 16.3498 28.3466C16.7993 28.3466 17.2253 28.345 17.6278 28.339C21.4983 28.1809 24.5347 27.0241 26.409 24.9935C28.0434 23.2221 28.7947 20.8192 28.6405 17.8444C28.6301 17.7436 28.6206 17.6847 28.6121 17.6305C28.6024 17.5676 28.5931 17.5115 28.5838 17.3932L28.5759 17.2976H3.42044L3.41288 17.3932Z" fill="#040606"></path>
<path d="M4.17755 3.42598C4.64926 3.49846 5.10864 3.5347 5.54601 3.5347C7.66816 3.5347 9.25538 3.33956 11.0571 2.34717C12.5956 3.25593 14.1662 3.71151 15.8515 3.737V12.7964H4.50718C5.50299 10.4683 6.2048 7.01287 4.17755 3.42598ZM16.0605 3.73819C17.7811 3.72585 19.38 3.27067 20.9434 2.34717C22.7447 3.33956 24.3318 3.5347 26.4541 3.5347C26.9034 3.5347 27.3636 3.49647 27.8262 3.4208C25.7971 7.01326 26.4973 10.4683 27.4927 12.7964H16.0605V3.73819ZM4.2527 12.8581L4.18892 13.0027H27.8109L27.7471 12.8581C26.7214 10.534 25.952 6.99415 28.118 3.33239L28.2341 3.13607L28.0081 3.17907C27.4852 3.27863 26.9623 3.32801 26.4541 3.32801C24.3458 3.32801 22.7766 3.13328 20.993 2.1377L20.9394 2.10783L20.8872 2.13929C19.3214 3.07514 17.7216 3.53072 15.9968 3.53191C14.2765 3.53072 12.6791 3.07514 11.1128 2.13929L11.0607 2.10783L11.0073 2.1377C9.22369 3.13328 7.65417 3.32801 5.54601 3.32801C5.05385 3.32801 4.53206 3.28103 3.99582 3.18704L3.77344 3.14802L3.88762 3.34076C6.04885 6.99534 5.27923 10.534 4.2527 12.8581" fill="#040606"></path>
<path d="M13.0181 14.2424V13.5606H10.6797V16.7608H11.3832V15.4411H12.3386V14.7645H11.3832V14.2424H13.0181" fill="#040606"></path>
<path d="M15.7583 14.2014C16.0136 14.2014 16.1935 14.3065 16.3076 14.5231L16.3226 14.5518L16.9734 14.2555L16.9582 14.2245C16.7299 13.7581 16.3179 13.5112 15.7675 13.5112C14.9175 13.5112 14.3242 14.1898 14.3242 15.1607C14.3242 16.1623 14.8817 16.8098 15.7446 16.8098C16.307 16.8098 16.7127 16.5657 16.9489 16.0838L16.963 16.0555L16.3716 15.7095L16.3541 15.7381C16.1858 16.0165 16.0256 16.1201 15.7629 16.1201C15.3337 16.1201 15.0454 15.7342 15.0454 15.1607C15.0454 14.5689 15.3188 14.2014 15.7583 14.2014" fill="#040606"></path>
<path d="M20.154 16.0974H19.3461V15.3554H20.154C20.4391 15.3554 20.5723 15.4733 20.5723 15.725C20.5723 15.9687 20.4274 16.0974 20.154 16.0974ZM19.3461 14.2057H20.1176C20.4321 14.2057 20.4724 14.3483 20.4724 14.4714C20.4724 14.6474 20.3668 14.7326 20.1493 14.7326H19.3461V14.2057ZM21.1849 14.4224C21.1849 13.8832 20.7959 13.5606 20.1449 13.5606H18.6562V16.7608H20.131C20.8588 16.7608 21.2936 16.3701 21.2936 15.7154C21.2936 15.412 21.1453 15.1635 20.8846 15.0265C21.0763 14.8891 21.1849 14.6721 21.1849 14.4224" fill="#040606"></path>
<path d="M13.9137 20.1506C13.8525 20.3895 13.7934 20.5982 13.7461 20.8112C13.5771 21.5766 13.5789 22.7291 14.2095 23.2966C13.9934 23.6789 13.5956 23.9007 13.1088 23.9007C13.0505 23.9007 12.9938 23.8972 12.9379 23.8896C12.7839 23.5137 12.6988 23.1027 12.6988 22.6722C12.6988 21.6547 13.1727 20.7463 13.9137 20.1506V20.1506ZM17.8513 21.0311C17.2769 20.7145 16.523 20.4246 15.9792 20.648C15.568 20.3959 15.4971 19.7599 16.0161 19.4234C17.7525 19.4377 19.1682 20.7818 19.2701 22.4755C18.96 21.8893 18.3934 21.3301 17.8513 21.0311ZM17.6116 23.3289C17.6062 23.209 17.5782 23.0832 17.5225 22.9509C17.3476 22.5388 16.7438 22.037 15.9872 22.5531C15.4308 22.1397 15.4648 21.5062 15.7105 21.1219C16.0926 20.5233 16.9618 20.7619 17.7559 21.1999C18.3998 21.5555 19.0748 22.2986 19.2624 22.9709C19.2304 23.3197 19.1422 23.653 19.0069 23.9617C18.7835 23.2735 18.0581 23.1732 17.6116 23.3289V23.3289ZM13.8422 21.7754C13.8329 21.139 14.0158 20.5815 14.1596 19.9714C14.6073 19.6747 15.1332 19.4843 15.7003 19.4365C15.3206 19.8451 15.399 20.4441 15.7907 20.7527C15.6987 20.8192 15.6159 20.9068 15.545 21.0183C15.2552 21.4715 15.2138 22.2349 15.8871 22.7204C15.8461 23.1007 15.3325 23.4746 14.9768 23.4296C14.2144 23.3333 13.8543 22.6344 13.8422 21.7754V21.7754ZM14.3657 23.4161C14.527 23.5204 14.7205 23.5925 14.9517 23.6216C15.4083 23.6793 16.0434 23.2313 16.0836 22.7224C16.7117 22.2831 17.1958 22.6817 17.3421 23.0262C17.6302 23.7068 17.0234 24.1982 16.2422 24.659C15.6374 25.0142 14.5832 25.185 13.8972 25.1799C13.5346 24.8844 13.237 24.5136 13.0293 24.0923C13.0555 24.0935 13.0818 24.0943 13.1088 24.0943C13.6501 24.0943 14.1095 23.849 14.3657 23.4161ZM15.9876 25.921C15.308 25.921 14.6766 25.7163 14.1521 25.3678C14.8467 25.336 15.7699 25.1615 16.3427 24.8242C16.8979 24.4973 17.4872 24.0895 17.5947 23.5447C17.9982 23.3456 18.7698 23.4392 18.8681 24.2412C18.3076 25.2424 17.2278 25.921 15.9876 25.921V25.921ZM15.9876 26.1284C17.9168 26.1284 19.4865 24.5777 19.4865 22.6722C19.4865 20.7662 17.9168 19.2155 15.9876 19.2155C14.058 19.2155 12.4883 20.7662 12.4883 22.6722C12.4883 24.5777 14.058 26.1284 15.9876 26.1284" fill="#040606"></path>
<path d="M20.9212 0.498978L21.0828 0.604506C22.8559 1.76416 24.2834 1.97642 26.4557 1.97642C27.2216 1.97642 28.0431 1.83424 28.8305 1.56584L29.0366 1.49536L30.0666 2.92102L29.9606 3.0608C26.1341 8.08292 29.1179 13.5049 31.23 15.6693L31.4253 15.8696L31.2261 16.0659C30.9492 16.3391 30.4696 16.8317 30.1132 17.2009L29.9928 17.3267L30.0005 17.4987L30.0024 17.5589C30.0044 17.6027 30.0058 17.6481 30.0148 17.7273L30.0181 17.7588C30.1969 21.1083 29.3181 23.8597 27.4062 25.9357C25.3744 28.1419 22.1699 29.47 18.3827 29.6751L18.2369 29.6835L18.1287 29.781C17.1644 30.648 16.1856 31.368 16.1752 31.376L16.0045 31.5014L15.8338 31.3768C15.7933 31.3469 14.8266 30.6364 13.8749 29.781L13.7667 29.6835L13.6207 29.6751C9.83367 29.47 6.62891 28.1419 4.5971 25.9357C2.68472 23.8589 1.80592 21.1075 1.98562 17.758L1.98829 17.7265C1.99696 17.6521 1.99869 17.6114 2.00058 17.5644L2.00089 17.5521L2.00105 17.5505L2.00278 17.4987L2.01034 17.3263L1.89002 17.2009C1.55393 16.8524 1.06099 16.3455 0.777193 16.0659L0.578125 15.8696L0.773411 15.6693C2.88568 13.5049 5.869 8.08292 2.04279 3.0608L1.93632 2.92102L2.9671 1.49536L3.17294 1.56584C3.96039 1.83424 4.7814 1.97642 5.54759 1.97642C7.71986 1.97642 9.14718 1.76416 10.9203 0.604506L11.0823 0.498978L11.2418 0.608094C12.806 1.68053 14.3186 2.17992 16.0019 2.17992C17.6851 2.17992 19.1973 1.68053 20.7616 0.608094L20.9212 0.498978" fill="#CAA91E"></path>
<path d="M4.34759 12.8996C5.54627 10.1844 5.99275 6.69709 3.97656 3.28861C4.48036 3.37702 5.00908 3.43198 5.54502 3.43198C7.60844 3.43198 9.23311 3.2464 11.058 2.22773C12.4963 3.08711 14.1082 3.63349 15.9956 3.63508C17.8901 3.63349 19.5013 3.08711 20.94 2.22773C22.7652 3.2464 24.3899 3.43198 26.4531 3.43198C26.9891 3.43198 27.5178 3.37702 28.0268 3.28025C26.0057 6.69709 26.4516 10.1844 27.6505 12.8996H4.34759Z" fill="white"></path>
<path d="M27.6508 12.8996C26.4519 10.1844 26.006 6.69709 28.0271 3.28025C27.5181 3.37702 26.9894 3.43198 26.4534 3.43198C24.3902 3.43198 22.7655 3.2464 20.9403 2.22773C19.5016 3.08711 17.8904 3.63349 15.9959 3.63508C15.9777 3.63508 15.9598 3.63429 15.9414 3.63429V12.8996H27.6508" fill="#EDC720"></path>
<path d="M25.0859 26.0221C27.3822 24.3643 28.7383 21.7168 28.5391 17.8548C28.5161 17.6353 28.4995 17.6226 28.4819 17.4012H25.0859V26.0221Z" fill="#293D81"></path>
<path d="M21.4492 27.684C22.8161 27.3192 24.0462 26.7712 25.0841 26.0217V17.4012H21.4492V27.684" fill="#7B1941"></path>
<path d="M6.91406 26.0217C7.9524 26.7712 9.18209 27.3192 10.5494 27.684V17.4012H6.91406V26.0217" fill="#7B1941"></path>
<path d="M3.46071 17.8548C3.26148 21.7168 4.61765 24.3647 6.91401 26.0225V17.4012H3.51772C3.50008 17.6226 3.48386 17.6353 3.46071 17.8548" fill="#293D81"></path>
<path d="M16.0099 19.3075C16.6748 19.3075 17.2932 19.4979 17.8187 19.8216V17.4012H14.1836V19.8328C14.7125 19.5023 15.3377 19.3075 16.0099 19.3075" fill="#7B1941"></path>
<path d="M16.0099 26.0731C15.3377 26.0731 14.7125 25.8787 14.1836 25.5478V28.2255C14.2477 28.2287 14.3113 28.2327 14.3757 28.2363C15.5832 28.2423 16.678 28.2486 17.6263 28.2363C17.6909 28.2327 17.7544 28.2287 17.8187 28.2255V25.559C17.2932 25.8827 16.6748 26.0731 16.0099 26.0731" fill="#7B1941"></path>
<path d="M17.8164 17.4012V19.8208C18.7858 20.4182 19.4329 21.4787 19.4329 22.6901C19.4329 23.9019 18.7858 24.9616 17.8164 25.5594V28.2256C19.1 28.1614 20.3221 27.9846 21.4514 27.684V17.4012H17.8164" fill="#293D81"></path>
<path d="M12.5836 22.6901C12.5836 21.4859 13.2225 20.4317 14.1822 19.832V17.4012H10.5469V27.684C11.6761 27.9846 12.8985 28.1614 14.1822 28.2256V25.5482C13.2225 24.9485 12.5836 23.8948 12.5836 22.6901Z" fill="#293D81"></path>
<path d="M5.16797 6.33271C5.41161 7.5079 5.41995 8.66118 5.26324 9.75831H8.79417V12.8996H12.2621V9.75831H15.957V6.33271H12.2621V2.84857C11.8475 2.66778 11.4469 2.4591 11.0595 2.22773C10.2847 2.66021 9.54557 2.94136 8.79417 3.12335V6.33271H5.16797" fill="#C01A39"></path>
<path d="M23.4178 12.8996V3.17114C23 3.08113 22.587 2.96127 22.1719 2.80317V12.8996H23.4178" fill="#C01A39"></path>
<path d="M18.4336 12.8996V3.31052C18.0324 3.42003 17.6174 3.50366 17.1875 3.55821V12.8996H18.4336Z" fill="#C01A39"></path>
<path d="M25.914 12.8996V3.42601C25.4831 3.41804 25.0694 3.39853 24.668 3.36069V12.8996H25.914" fill="#C01A39"></path>
<path d="M20.9259 12.8996V2.23569C20.5251 2.47463 20.1101 2.68808 19.6797 2.87366V12.8996H20.9259Z" fill="#C01A39"></path>
<path d="M29.6904 17.2212C29.7262 17.5692 29.7054 17.5557 29.7296 17.7592C30.146 25.4817 24.6994 29.1279 18.1171 29.3971C17.1109 30.3254 16.0028 31.1418 16.0028 31.1418C16.0028 31.1418 14.8892 30.3254 13.8829 29.3971C7.30046 29.1279 1.85366 25.4817 2.27023 17.7592C2.29464 17.5557 2.27369 17.5692 2.3096 17.2212C1.93225 16.8273 1.30749 16.1834 0.977858 15.858C3.3388 13.4384 6.09347 7.90213 2.26975 2.8828L3.07736 1.82509C3.84182 2.08594 4.69179 2.25161 5.54588 2.25161C7.73847 2.25161 9.23586 2.03656 11.0769 0.832302C12.5321 1.83027 14.1102 2.4551 16.0002 2.4551C17.89 2.4551 19.468 1.83027 20.9234 0.832302C22.764 2.03656 24.2609 2.25161 26.454 2.25161C27.3079 2.25161 28.158 2.08594 28.9225 1.82509L29.7301 2.8828C25.9062 7.90213 28.6611 13.4384 31.0225 15.858C30.6925 16.1834 30.0676 16.8273 29.6904 17.2212V17.2212ZM32 15.8676L31.5247 15.3797C29.4964 13.3014 26.6278 8.10125 30.2873 3.29737L30.5746 2.91944L29.191 1.00474L28.6949 1.17399C27.9497 1.42846 27.1748 1.56227 26.454 1.56227C24.3639 1.56227 22.9942 1.36076 21.3083 0.258053L20.9139 -6.05441e-07L20.5256 0.266813C19.033 1.28948 17.5956 1.76576 16.0002 1.76576C14.4047 1.76576 12.9665 1.28948 11.4746 0.266813L11.0861 -6.05441e-07L10.6919 0.258053C9.00577 1.36076 7.63606 1.56227 5.54588 1.56227C4.82488 1.56227 4.05018 1.42846 3.3051 1.17399L2.809 1.00474L1.42481 2.91944L1.71224 3.29737C5.37199 8.10125 2.50347 13.3014 0.475622 15.3797L0 15.8676L0.485073 16.3455C0.745717 16.6023 1.20811 17.0766 1.59018 17.4741C1.58924 17.496 1.58892 17.5159 1.58813 17.5354C1.58656 17.5768 1.58546 17.6114 1.57742 17.6779L1.57365 17.7226C1.3867 21.1872 2.30125 24.0401 4.29116 26.2013C6.40057 28.492 9.69762 29.8619 13.5965 30.0729C14.5623 30.9423 15.5431 31.6627 15.587 31.6949L16.0037 32L16.4195 31.6942C16.4631 31.6619 17.4384 30.9415 18.4036 30.0729C22.3024 29.8619 25.5993 28.492 27.7084 26.2013C29.6988 24.0401 30.613 21.1876 30.4264 17.7226L30.4224 17.6779C30.4144 17.611 30.4131 17.5764 30.4122 17.5346C30.4112 17.5159 30.4104 17.496 30.4097 17.4741C30.792 17.0766 31.2548 16.6019 31.5149 16.3455L32 15.8676" fill="#040606"></path>
<path d="M3.56391 17.8655C3.57415 17.7695 3.58281 17.7138 3.591 17.6624C3.5984 17.615 3.60549 17.5708 3.61257 17.5051H28.3839C28.391 17.5716 28.3984 17.615 28.4055 17.6628C28.4137 17.7138 28.4225 17.7695 28.4326 17.8603C28.5827 20.7726 27.8501 23.1254 26.255 24.8541C24.4186 26.8429 21.4328 27.977 17.622 28.1327C16.7131 28.1451 15.6696 28.1399 14.5212 28.1335L14.3775 28.1327C10.5639 27.977 7.5777 26.8429 5.742 24.8541C4.14664 23.1258 3.41414 20.7726 3.56391 17.8655V17.8655ZM3.41288 17.3932C3.40343 17.5115 3.39414 17.5676 3.38437 17.6305C3.37571 17.6847 3.36658 17.7436 3.35539 17.8496C3.20231 20.8192 3.95323 23.2225 5.58751 24.9935C7.46179 27.0241 10.4984 28.1809 14.3726 28.3394L14.5199 28.3398C15.1647 28.3438 15.7764 28.3466 16.3498 28.3466C16.7993 28.3466 17.2253 28.345 17.6278 28.339C21.4983 28.1809 24.5347 27.0241 26.409 24.9935C28.0434 23.2221 28.7947 20.8192 28.6405 17.8444C28.6301 17.7436 28.6206 17.6847 28.6121 17.6305C28.6024 17.5676 28.5931 17.5115 28.5838 17.3932L28.5759 17.2976H3.42044L3.41288 17.3932Z" fill="#040606"></path>
<path d="M4.17755 3.42598C4.64926 3.49846 5.10864 3.5347 5.54601 3.5347C7.66816 3.5347 9.25538 3.33956 11.0571 2.34717C12.5956 3.25593 14.1662 3.71151 15.8515 3.737V12.7964H4.50718C5.50299 10.4683 6.2048 7.01287 4.17755 3.42598ZM16.0605 3.73819C17.7811 3.72585 19.38 3.27067 20.9434 2.34717C22.7447 3.33956 24.3318 3.5347 26.4541 3.5347C26.9034 3.5347 27.3636 3.49647 27.8262 3.4208C25.7971 7.01326 26.4973 10.4683 27.4927 12.7964H16.0605V3.73819ZM4.2527 12.8581L4.18892 13.0027H27.8109L27.7471 12.8581C26.7214 10.534 25.952 6.99415 28.118 3.33239L28.2341 3.13607L28.0081 3.17907C27.4852 3.27863 26.9623 3.32801 26.4541 3.32801C24.3458 3.32801 22.7766 3.13328 20.993 2.1377L20.9394 2.10783L20.8872 2.13929C19.3214 3.07514 17.7216 3.53072 15.9968 3.53191C14.2765 3.53072 12.6791 3.07514 11.1128 2.13929L11.0607 2.10783L11.0073 2.1377C9.22369 3.13328 7.65417 3.32801 5.54601 3.32801C5.05385 3.32801 4.53206 3.28103 3.99582 3.18704L3.77344 3.14802L3.88762 3.34076C6.04885 6.99534 5.27923 10.534 4.2527 12.8581" fill="#040606"></path>
<path d="M13.0181 14.2424V13.5606H10.6797V16.7608H11.3832V15.4411H12.3386V14.7645H11.3832V14.2424H13.0181" fill="#040606"></path>
<path d="M15.7583 14.2014C16.0136 14.2014 16.1935 14.3065 16.3076 14.5231L16.3226 14.5518L16.9734 14.2555L16.9582 14.2245C16.7299 13.7581 16.3179 13.5112 15.7675 13.5112C14.9175 13.5112 14.3242 14.1898 14.3242 15.1607C14.3242 16.1623 14.8817 16.8098 15.7446 16.8098C16.307 16.8098 16.7127 16.5657 16.9489 16.0838L16.963 16.0555L16.3716 15.7095L16.3541 15.7381C16.1858 16.0165 16.0256 16.1201 15.7629 16.1201C15.3337 16.1201 15.0454 15.7342 15.0454 15.1607C15.0454 14.5689 15.3188 14.2014 15.7583 14.2014" fill="#040606"></path>
<path d="M20.154 16.0974H19.3461V15.3554H20.154C20.4391 15.3554 20.5723 15.4733 20.5723 15.725C20.5723 15.9687 20.4274 16.0974 20.154 16.0974ZM19.3461 14.2057H20.1176C20.4321 14.2057 20.4724 14.3483 20.4724 14.4714C20.4724 14.6474 20.3668 14.7326 20.1493 14.7326H19.3461V14.2057ZM21.1849 14.4224C21.1849 13.8832 20.7959 13.5606 20.1449 13.5606H18.6562V16.7608H20.131C20.8588 16.7608 21.2936 16.3701 21.2936 15.7154C21.2936 15.412 21.1453 15.1635 20.8846 15.0265C21.0763 14.8891 21.1849 14.6721 21.1849 14.4224" fill="#040606"></path>
<path d="M13.9137 20.1506C13.8525 20.3895 13.7934 20.5982 13.7461 20.8112C13.5771 21.5766 13.5789 22.7291 14.2095 23.2966C13.9934 23.6789 13.5956 23.9007 13.1088 23.9007C13.0505 23.9007 12.9938 23.8972 12.9379 23.8896C12.7839 23.5137 12.6988 23.1027 12.6988 22.6722C12.6988 21.6547 13.1727 20.7463 13.9137 20.1506V20.1506ZM17.8513 21.0311C17.2769 20.7145 16.523 20.4246 15.9792 20.648C15.568 20.3959 15.4971 19.7599 16.0161 19.4234C17.7525 19.4377 19.1682 20.7818 19.2701 22.4755C18.96 21.8893 18.3934 21.3301 17.8513 21.0311ZM17.6116 23.3289C17.6062 23.209 17.5782 23.0832 17.5225 22.9509C17.3476 22.5388 16.7438 22.037 15.9872 22.5531C15.4308 22.1397 15.4648 21.5062 15.7105 21.1219C16.0926 20.5233 16.9618 20.7619 17.7559 21.1999C18.3998 21.5555 19.0748 22.2986 19.2624 22.9709C19.2304 23.3197 19.1422 23.653 19.0069 23.9617C18.7835 23.2735 18.0581 23.1732 17.6116 23.3289V23.3289ZM13.8422 21.7754C13.8329 21.139 14.0158 20.5815 14.1596 19.9714C14.6073 19.6747 15.1332 19.4843 15.7003 19.4365C15.3206 19.8451 15.399 20.4441 15.7907 20.7527C15.6987 20.8192 15.6159 20.9068 15.545 21.0183C15.2552 21.4715 15.2138 22.2349 15.8871 22.7204C15.8461 23.1007 15.3325 23.4746 14.9768 23.4296C14.2144 23.3333 13.8543 22.6344 13.8422 21.7754V21.7754ZM14.3657 23.4161C14.527 23.5204 14.7205 23.5925 14.9517 23.6216C15.4083 23.6793 16.0434 23.2313 16.0836 22.7224C16.7117 22.2831 17.1958 22.6817 17.3421 23.0262C17.6302 23.7068 17.0234 24.1982 16.2422 24.659C15.6374 25.0142 14.5832 25.185 13.8972 25.1799C13.5346 24.8844 13.237 24.5136 13.0293 24.0923C13.0555 24.0935 13.0818 24.0943 13.1088 24.0943C13.6501 24.0943 14.1095 23.849 14.3657 23.4161ZM15.9876 25.921C15.308 25.921 14.6766 25.7163 14.1521 25.3678C14.8467 25.336 15.7699 25.1615 16.3427 24.8242C16.8979 24.4973 17.4872 24.0895 17.5947 23.5447C17.9982 23.3456 18.7698 23.4392 18.8681 24.2412C18.3076 25.2424 17.2278 25.921 15.9876 25.921V25.921ZM15.9876 26.1284C17.9168 26.1284 19.4865 24.5777 19.4865 22.6722C19.4865 20.7662 17.9168 19.2155 15.9876 19.2155C14.058 19.2155 12.4883 20.7662 12.4883 22.6722C12.4883 24.5777 14.058 26.1284 15.9876 26.1284" fill="#040606"></path>
</svg>