<svg width="64" height="18" viewBox="0 0 64 18" fill="none" xmlns="http://www.w3.org/2000/svg">
  <path d="M41.5142 0.0900979C42.2458 0.101335 43.1748 0.0575811 44.1016 0.111856C44.8143 0.153458 45.503 0.31126 46.1424 0.655796C47.0896 1.16626 47.6016 1.98444 47.7032 3.05272C47.8346 4.43564 47.552 5.74684 46.8937 6.9612C46.2487 8.1507 45.2322 8.851 43.9584 9.18669C43.2893 9.36314 42.6057 9.40475 41.919 9.41288C41.4667 9.41838 41.0142 9.4112 40.5619 9.41479C40.1363 9.41814 39.9089 9.60152 39.8331 10.0319C39.7338 10.5947 39.6535 11.1611 39.5662 11.7264C39.4693 12.3545 39.3759 12.983 39.2761 13.6107C39.2288 13.9079 39.0615 14.0664 38.769 14.069C37.9501 14.0762 37.131 14.0771 36.312 14.0709C35.9817 14.0685 35.8228 13.8636 35.8736 13.5179C35.9684 12.8735 36.0725 12.2306 36.1716 11.587C36.3205 10.6213 36.468 9.65556 36.6169 8.68985C36.7814 7.6223 36.9472 6.55474 37.1115 5.48718C37.259 4.52937 37.4053 3.57132 37.5519 2.61326C37.6493 1.97727 37.7422 1.34056 37.8443 0.705289C37.9077 0.310543 38.1618 0.092489 38.5567 0.0910545C39.477 0.0877071 40.3973 0.0898589 41.514 0.0898589L41.5142 0.0900979ZM40.3594 6.59275C40.8927 6.59275 41.3906 6.60495 41.8876 6.58797C42.158 6.57865 42.4303 6.5447 42.6932 6.46436C43.1174 6.33477 43.4775 6.11528 43.7062 5.71265C43.9851 5.22203 44.0785 4.68406 44.0422 4.12865C44.0075 3.59857 43.7427 3.21674 43.2343 3.04244C43.0425 2.97669 42.844 2.94035 42.642 2.91644C42.2145 2.86575 41.786 2.88894 41.3581 2.88535C41.0484 2.88272 40.9189 2.99534 40.8695 3.30496C40.7482 4.06505 40.6291 4.82537 40.5106 5.58593C40.4593 5.91444 40.4118 6.24368 40.3596 6.59275H40.3594Z" fill="#181733"></path>
  <path d="M6.25961 0.102387C7.14877 0.102387 8.03816 0.086368 8.92661 0.107647C9.56854 0.12295 10.1943 0.256842 10.7897 0.515782C11.9113 1.00353 12.5364 1.87025 12.6473 3.10566C12.7651 4.41589 12.4961 5.65943 11.9099 6.82143C11.2719 8.08624 10.2283 8.83867 8.88986 9.18607C8.23528 9.35607 7.56783 9.40365 6.89616 9.40867C6.4359 9.41202 5.97587 9.40771 5.5156 9.40987C5.07477 9.41178 4.83691 9.61214 4.76504 10.0607C4.62294 10.948 4.48973 11.8364 4.35207 12.7244C4.31321 12.9757 4.27856 13.2282 4.22939 13.4776C4.15541 13.8532 3.9117 14.0646 3.54415 14.0667C2.77977 14.0715 2.0154 14.071 1.25103 14.0667C0.934507 14.065 0.763372 13.8551 0.812535 13.5354C1.0038 12.2936 1.19952 11.0524 1.39079 9.81083C1.57106 8.63974 1.74594 7.46794 1.92597 6.29685C2.07229 5.34597 2.22376 4.39605 2.37055 3.44517C2.50399 2.58084 2.63392 1.71604 2.76596 0.851471C2.7779 0.772809 2.78961 0.693908 2.80881 0.616919C2.88606 0.309443 3.1197 0.111473 3.42826 0.0933016C3.5294 0.0873243 3.631 0.0909109 3.73237 0.0909109C4.57471 0.0909109 5.41704 0.0909109 6.25938 0.0909109C6.25938 0.0947364 6.25938 0.0985618 6.25938 0.102387H6.25961ZM6.11399 6.60504C6.21536 6.60504 6.31673 6.60624 6.4181 6.60504C6.87111 6.59859 7.32154 6.57277 7.75652 6.42429C8.20063 6.2727 8.53049 5.98914 8.7323 5.55542C8.91654 5.15972 8.98888 4.73772 8.99076 4.304C8.9938 3.55874 8.63163 3.11594 7.91314 2.9677C7.34987 2.8515 6.77957 2.87684 6.21092 2.88282C5.9864 2.88521 5.8464 3.03154 5.8066 3.27015C5.7647 3.52096 5.72935 3.77321 5.69025 4.02474C5.56336 4.84196 5.43694 5.65943 5.30795 6.47617C5.29343 6.56799 5.31427 6.60791 5.41166 6.60624C5.64553 6.60218 5.87965 6.60504 6.11376 6.60504H6.11399Z" fill="#181733"></path>
  <path d="M20.2197 5.71293C20.2525 5.51424 20.2813 5.32559 20.3148 5.1379C20.3628 4.8682 20.4962 4.74364 20.7582 4.74244C21.5228 4.73909 22.2874 4.7379 23.052 4.7434C23.3603 4.74555 23.5197 4.94615 23.4725 5.26462C23.3559 6.05148 23.2337 6.83763 23.1133 7.62377C22.9303 8.81877 22.7467 10.0138 22.5634 11.2088C22.4524 11.932 22.344 12.6558 22.2286 13.3785C22.1516 13.8617 21.9105 14.0667 21.4308 14.0678C20.7989 14.0693 20.1668 14.0683 19.5349 14.0681C19.4958 14.0681 19.4567 14.0698 19.4179 14.0669C19.1545 14.0487 18.996 13.8828 19.0133 13.6155C19.0264 13.4101 19.0679 13.2069 19.0983 12.9922C19.0349 12.9886 19.0033 13.0328 18.9667 13.066C17.9455 13.9997 16.7483 14.3835 15.3881 14.2706C14.8054 14.2223 14.2492 14.0851 13.74 13.7862C12.9969 13.3501 12.5146 12.6909 12.2232 11.8801C11.8317 10.7913 11.8689 9.68955 12.1827 8.59425C12.5982 7.14415 13.4216 5.99864 14.7057 5.22637C15.6468 4.66043 16.6689 4.43879 17.759 4.53252C18.1724 4.56814 18.5793 4.626 18.9735 4.76229C19.4523 4.92798 19.8585 5.1929 20.1324 5.64048C20.1446 5.66033 20.1602 5.67802 20.1759 5.69571C20.1804 5.70073 20.1895 5.70121 20.2197 5.71245V5.71293ZM17.8166 7.07003C17.6768 7.08126 17.5354 7.08222 17.3977 7.10565C15.895 7.3622 15.0241 8.72265 15.1788 10.1539C15.2507 10.8202 15.6051 11.3046 16.2234 11.5655C16.5154 11.6886 16.822 11.7307 17.1376 11.7305C18.7649 11.73 19.9685 10.393 19.8072 8.73986C19.7374 8.02497 19.3687 7.51044 18.7092 7.23309C18.4248 7.11354 18.1251 7.06548 17.8166 7.06979V7.07003Z" fill="#181733"></path>
  <path d="M54.1227 13.0101C54.0438 13.0175 54.0087 13.0883 53.9579 13.1335C53.2172 13.7907 52.3603 14.1659 51.3834 14.2692C50.7864 14.3323 50.199 14.2909 49.6231 14.1322C48.4563 13.8106 47.702 13.0268 47.2841 11.889C46.9275 10.9185 46.9278 9.92578 47.1556 8.929C47.4735 7.53699 48.1719 6.38862 49.3031 5.53338C50.0583 4.96242 50.9056 4.62888 51.8458 4.5385C52.5048 4.47514 53.1526 4.52392 53.7926 4.6877C54.3789 4.83761 54.8806 5.11927 55.2076 5.66345C55.2153 5.67636 55.2282 5.68664 55.2399 5.6962C55.2451 5.70027 55.254 5.69955 55.2788 5.70457C55.301 5.56805 55.323 5.43105 55.3455 5.29428C55.3572 5.22375 55.3659 5.1525 55.3825 5.0834C55.4384 4.85315 55.5639 4.74484 55.7964 4.74389C56.5687 4.74078 57.3408 4.7403 58.1132 4.74389C58.403 4.74532 58.5671 4.9189 58.5353 5.21634C58.4929 5.61108 58.4262 6.0032 58.366 6.39579C58.2178 7.36173 58.067 8.3272 57.9175 9.29266C57.7374 10.4544 57.5576 11.6162 57.3778 12.7779C57.3425 13.0056 57.3118 13.2341 57.2711 13.4608C57.2018 13.8445 56.9543 14.065 56.5755 14.0681C55.8891 14.0738 55.2027 14.0731 54.5163 14.0693C54.2044 14.0674 54.0525 13.8861 54.0726 13.5634C54.0839 13.3812 54.1501 13.2054 54.1326 13.0201C54.1497 13.0223 54.1586 13.0144 54.156 12.9972C54.1553 12.9919 54.1478 12.9874 54.1436 12.9826C54.1368 12.9919 54.13 13.001 54.123 13.0103L54.1227 13.0101ZM52.1813 11.7293C52.5453 11.7324 52.8667 11.6774 53.1741 11.5562C54.2234 11.143 54.8824 10.1553 54.8817 9.00599C54.881 7.96712 54.2328 7.20728 53.2282 7.09538C51.2991 6.88068 50.0251 8.51274 50.2461 10.1955C50.3325 10.8542 50.6897 11.3223 51.3001 11.5705C51.592 11.6893 51.8996 11.7388 52.1813 11.729V11.7293Z" fill="#181733"></path>
  <path d="M29.4238 9.95805C29.6476 9.6226 29.8499 9.32182 30.05 9.01984C30.9111 7.72108 31.7733 6.42304 32.6306 5.12164C32.8022 4.86127 33.0232 4.73431 33.3351 4.73838C34.0604 4.74746 34.7859 4.74124 35.5114 4.74148C35.5505 4.74148 35.5896 4.73957 35.6284 4.74268C35.955 4.76826 36.1266 5.1006 35.9548 5.388C35.8412 5.57808 35.7118 5.75811 35.5875 5.9415C33.6237 8.84291 31.6598 11.7438 29.696 14.6453C29.2039 15.3723 28.7135 16.1004 28.2223 16.8277C28.1736 16.8999 28.1275 16.974 28.0748 17.0429C27.9379 17.2225 27.7602 17.3255 27.5333 17.3258C26.7533 17.3265 25.9732 17.325 25.1931 17.3269C25.0234 17.3274 24.8844 17.2729 24.8036 17.1153C24.7158 16.9434 24.7432 16.7811 24.853 16.6231C25.4577 15.753 26.0594 14.8808 26.662 14.0095C26.8284 13.769 26.989 13.5237 27.1634 13.2894C27.2479 13.1758 27.259 13.0785 27.2131 12.942C26.6222 11.1813 26.0381 9.41841 25.4523 7.65581C25.207 6.91772 24.9616 6.17988 24.717 5.44155C24.6945 5.37389 24.6699 5.30575 24.6584 5.23569C24.6172 4.98536 24.7734 4.774 25.0183 4.74459C25.0646 4.73909 25.1117 4.74148 25.1585 4.74148C25.8761 4.74148 26.5938 4.74029 27.3114 4.74172C27.7101 4.74268 27.9376 4.91028 28.0524 5.29929C28.4899 6.78407 28.924 8.27028 29.3596 9.75578C29.3751 9.80886 29.3929 9.86122 29.4235 9.95805H29.4238Z" fill="#181733"></path>
  <path d="M62.4505 0.0784174C62.7938 0.0784174 63.137 0.0760265 63.4802 0.0796129C63.6202 0.0810475 63.7609 0.0865464 63.8702 0.202986C63.9753 0.315121 64.0177 0.444471 63.9938 0.596057C63.8938 1.23157 63.7911 1.86661 63.6925 2.50236C63.5476 3.4365 63.4057 4.37136 63.2622 5.30574C63.0969 6.38143 62.9312 7.45712 62.7657 8.53304C62.6027 9.59295 62.4402 10.6529 62.2766 11.7128C62.1855 12.3017 62.0959 12.8908 61.9985 13.4785C61.9416 13.8223 61.6986 14.0578 61.3605 14.0647C60.6743 14.0786 59.9877 14.0774 59.3015 14.0693C59.0271 14.0659 58.8682 13.8809 58.8981 13.5983C58.9391 13.2114 59.0047 12.8269 59.0634 12.4422C59.1966 11.5705 59.3324 10.6992 59.467 9.82774C59.6318 8.76018 59.7971 7.69263 59.9608 6.62483C60.1076 5.66678 60.2515 4.70801 60.3986 3.74995C60.5493 2.76847 60.7024 1.78747 60.8544 0.806461C60.8726 0.688826 60.8862 0.570235 60.9092 0.453557C60.9557 0.217571 61.0695 0.0989796 61.3043 0.0908504C61.6859 0.0779393 62.0685 0.0872638 62.4505 0.0872638C62.4505 0.0843946 62.4505 0.0812865 62.4505 0.0784174Z" fill="#181733"></path>
</svg>